<svg width="239" height="239" viewBox="0 0 239 239" fill="none" xmlns="http://www.w3.org/2000/svg">
<circle cx="119.5" cy="119.5" r="119.5" fill="white"/>
<path d="M93.1045 29.1731C93.0355 29.2416 92.8515 29.3672 92.702 29.4357C92.541 29.527 92.449 29.6526 92.472 29.801C92.5985 30.5773 92.6215 32.7922 92.518 32.8607C92.4375 32.9063 92.4145 33.0776 92.4605 33.2831C92.5065 33.5343 92.472 33.6598 92.311 33.7854C92.127 33.9224 92.1155 33.9795 92.242 34.1736C92.4375 34.4933 92.4145 34.6417 92.1845 34.6417C91.9315 34.6531 91.4255 35.6692 91.4255 36.1487C91.4255 36.3199 91.3565 36.4683 91.276 36.4683C91.1035 36.4683 90.9425 36.8451 91.1035 36.9022C91.3105 36.9707 91.2415 37.1533 91.0115 37.1533C90.7815 37.1533 90.31 37.6557 90.31 37.8954C90.31 37.9639 90.2065 38.1238 90.08 38.2379C89.9535 38.3521 89.85 38.5233 89.85 38.6261C89.85 38.7288 89.689 38.9572 89.505 39.1398C89.3095 39.3225 89.16 39.5737 89.16 39.6878C89.16 39.802 89.0795 39.8933 88.976 39.8933C88.8725 39.8933 88.7345 40.0418 88.6655 40.2358C88.585 40.4413 88.447 40.5783 88.332 40.5783C88.217 40.5783 88.125 40.624 88.125 40.6925C88.125 40.7496 88.1825 40.8067 88.24 40.8067C88.309 40.8067 88.355 40.8523 88.355 40.9208C88.355 40.9779 88.286 41.0008 88.2055 40.9665C88.01 40.898 87.7225 41.4118 87.826 41.6629C87.895 41.857 87.7225 42.2908 87.504 42.4278C87.412 42.4849 87.412 42.5763 87.504 42.7247C87.5845 42.8388 87.619 43.0672 87.5845 43.2384C87.5385 43.4439 87.573 43.5467 87.6765 43.5467C87.757 43.5467 88.033 43.6494 88.286 43.775C88.884 44.0604 90.5285 44.2659 90.747 44.0833C90.8505 44.0033 90.931 44.0033 90.977 44.0833C91.023 44.1403 91.345 44.2317 91.69 44.2773C92.334 44.3573 93.024 44.5513 94.036 44.9281C94.3465 45.0537 94.7145 45.145 94.864 45.145C95.025 45.145 95.2205 45.282 95.37 45.4875C95.508 45.6702 95.715 45.83 95.8415 45.83C95.9565 45.83 96.06 45.8757 96.06 45.9328C96.06 46.1154 96.7615 47.0973 96.934 47.1658C97.026 47.2 97.095 47.3142 97.095 47.4283C97.095 47.5425 97.2675 47.8051 97.4745 48.0106C97.693 48.2275 97.9345 48.5814 98.015 48.7983C98.107 49.0153 98.3025 49.3463 98.452 49.529C98.6015 49.7231 98.774 49.9857 98.8315 50.1341C98.889 50.2825 98.981 50.3967 99.05 50.3967C99.1075 50.3967 99.165 50.4652 99.165 50.5337C99.165 50.6136 99.349 50.8419 99.5905 51.0474C99.8895 51.3214 100.073 51.4013 100.269 51.3557C100.464 51.31 100.545 51.3557 100.602 51.5269C100.752 51.995 100.89 51.6297 100.89 50.7848C100.89 49.9058 100.752 49.1066 100.487 48.5129C100.407 48.3188 100.246 47.8622 100.131 47.4854C100.027 47.1087 99.832 46.6977 99.717 46.5607C99.602 46.4351 99.51 46.2753 99.51 46.1953C99.51 46.0355 99.0845 45.282 98.82 44.9738C98.705 44.8482 98.6015 44.6883 98.5785 44.6313C98.498 44.4029 97.4745 43.5467 97.2905 43.5467C97.187 43.5467 97.049 43.4439 96.98 43.3183C96.911 43.1928 96.7845 43.09 96.6925 43.09C96.6005 43.09 96.52 43.0443 96.52 42.9987C96.52 42.8731 95.025 42.1767 94.772 42.1767C94.6685 42.1767 94.542 42.1196 94.5075 42.0511C94.4615 41.9826 94.358 41.9598 94.2775 41.994C94.197 42.0168 93.7715 41.9712 93.3345 41.8798C92.909 41.7885 92.2535 41.6972 91.897 41.6972C91.46 41.6858 91.23 41.6401 91.23 41.5488C91.23 41.4688 91.437 41.1834 91.69 40.9094C91.943 40.6354 92.15 40.35 92.15 40.2815C92.15 40.213 92.2535 40.0646 92.38 39.9504C92.5755 39.7792 93.53 38.2493 93.53 38.1123C93.53 38.0895 93.6565 37.8041 93.806 37.4616C94.22 36.5825 94.68 35.1668 94.68 34.8015C94.68 34.4248 94.9215 33.7283 95.048 33.7283C95.094 33.7283 95.186 33.8311 95.255 33.9567C95.324 34.0823 95.439 34.185 95.5195 34.185C95.6 34.185 95.784 34.3334 95.922 34.5275C96.0715 34.7102 96.2555 34.87 96.359 34.87C96.451 34.87 96.6695 34.9728 96.8535 35.1098C97.026 35.2353 97.2445 35.3495 97.3365 35.3723C97.4285 35.3838 97.6815 35.4865 97.9 35.5893C98.1185 35.692 98.5325 35.829 98.82 35.8975C99.1075 35.9546 99.671 36.0916 100.073 36.1943C100.637 36.3542 100.878 36.3656 101.131 36.2743C101.568 36.103 101.557 36.2286 101.039 37.0163C100.441 37.9525 100.2 38.3978 100.2 38.569C100.2 38.6489 100.096 38.8088 99.97 38.9229C99.8435 39.0371 99.74 39.1969 99.74 39.2883C99.74 39.3682 99.694 39.5394 99.625 39.665C99.5675 39.7906 99.464 39.9961 99.395 40.1217C99.3375 40.2473 99.28 40.6583 99.28 41.035C99.28 41.4118 99.234 41.72 99.165 41.72C99.096 41.72 99.05 42.0625 99.05 42.5078C99.05 42.953 99.1075 43.3412 99.165 43.3754C99.234 43.4097 99.28 43.6038 99.28 43.7978C99.28 44.0148 99.4065 44.2773 99.625 44.5399C99.8205 44.7454 99.97 44.9738 99.97 45.0308C99.97 45.2934 101.2 44.871 101.752 44.4143C102.063 44.1632 102.097 44.0833 102.074 43.5581C102.063 43.2384 102.097 42.953 102.166 42.9073C102.235 42.8731 102.247 42.6904 102.212 42.4963C102.155 42.268 102.166 42.1767 102.247 42.2223C102.373 42.3023 102.534 41.8342 102.672 40.9323C102.73 40.5898 102.822 40.4185 102.971 40.3843C103.086 40.35 103.247 40.1788 103.328 39.9961C103.408 39.8134 103.512 39.665 103.558 39.665C103.615 39.665 103.65 39.5851 103.65 39.4938C103.65 39.4138 103.719 39.2883 103.799 39.2426C103.96 39.1398 104.202 38.7745 104.305 38.4891C104.34 38.3635 104.443 38.3064 104.558 38.3521C104.731 38.4092 104.846 38.2379 105.076 37.5643C105.122 37.4273 105.225 37.3703 105.363 37.4159C105.662 37.4844 105.95 37.1191 105.95 36.6624C105.961 36.2172 106.272 35.8176 106.651 35.7605C106.847 35.7377 106.939 35.6463 106.962 35.4408C106.985 35.281 107.077 35.1098 107.169 35.0641C107.261 35.007 107.33 34.7901 107.33 34.5161C107.33 33.9909 107.146 33.8768 106.007 33.6941C105.064 33.5457 102.833 33.5799 102.672 33.7512C102.626 33.7968 102.465 33.7512 102.316 33.6484C102.143 33.5457 101.913 33.5 101.718 33.5343C101.545 33.5685 101.12 33.5343 100.775 33.4429C100.43 33.363 99.8205 33.2603 99.4295 33.2146C99.0385 33.1689 98.659 33.0662 98.5785 32.9748C98.5095 32.8835 98.36 32.815 98.245 32.815C98.1415 32.815 97.9115 32.7123 97.7505 32.5867C97.5895 32.4611 97.3825 32.3583 97.2905 32.3583C97.1985 32.3583 97.0605 32.2784 96.98 32.1871C96.911 32.0958 96.612 31.8903 96.336 31.7304C96.06 31.5706 95.7495 31.2852 95.6575 31.1025C95.554 30.9084 95.416 30.76 95.324 30.76C95.2435 30.76 95.048 30.5659 94.8985 30.3376C94.6225 29.9152 93.5875 29.0475 93.3575 29.0475C93.2885 29.0475 93.1735 29.1046 93.1045 29.1731Z" fill="black"/>
<path d="M123.832 32.3355C123.648 32.3583 123.407 32.404 123.315 32.4383C123.223 32.4725 122.947 32.5296 122.694 32.541C122.452 32.5638 122.004 32.7351 121.693 32.9292C121.383 33.1118 120.992 33.3059 120.819 33.3402C120.635 33.3858 120.313 33.5685 120.095 33.7512C119.876 33.9224 119.612 34.0708 119.497 34.0708C119.393 34.0708 119.152 34.1964 118.968 34.3563C118.772 34.5161 118.577 34.6417 118.508 34.6417C118.45 34.6417 118.335 34.7102 118.266 34.8015C118.186 34.8928 117.91 35.0755 117.645 35.2125C117.381 35.3495 117.116 35.5208 117.047 35.6007C116.99 35.6806 116.725 35.8176 116.484 35.9089C116.231 36.0003 116.012 36.1487 115.989 36.24C115.955 36.3313 115.713 36.5483 115.426 36.7195C115.15 36.8908 114.92 37.1077 114.92 37.2104C114.92 37.3132 114.816 37.3817 114.667 37.3817C114.494 37.3817 114.115 37.6785 113.62 38.158C112.459 39.2997 111.7 40.1559 111.7 40.3158C111.7 40.3957 111.55 40.5327 111.355 40.6354C111.148 40.7382 111.01 40.898 111.01 41.035C111.01 41.1606 110.883 41.3433 110.722 41.446C110.561 41.5488 110.458 41.6743 110.492 41.72C110.515 41.7657 110.366 41.9369 110.147 42.1196C109.86 42.3365 109.745 42.5192 109.745 42.7475C109.745 42.9758 109.676 43.0786 109.492 43.1243C109.354 43.1699 109.273 43.227 109.319 43.2727C109.434 43.3868 109.181 43.775 108.986 43.775C108.894 43.775 108.767 43.912 108.71 44.0718C108.641 44.2431 108.491 44.5171 108.365 44.6883C108.238 44.871 108.135 45.0651 108.135 45.145C108.135 45.2249 108.008 45.3848 107.847 45.5103C107.652 45.6588 107.56 45.8414 107.56 46.0812C107.56 46.3209 107.491 46.4351 107.33 46.4808C107.192 46.515 107.1 46.6406 107.1 46.789C107.1 46.926 107.008 47.2114 106.893 47.4283C106.64 47.9307 106.421 48.6385 106.387 49.0838C106.364 49.3349 106.295 49.4263 106.122 49.4263C105.938 49.4263 105.892 49.5062 105.892 49.8487C105.892 50.077 105.846 50.3053 105.8 50.351C105.754 50.3967 105.72 50.5565 105.72 50.6935C105.72 50.8419 105.662 50.9903 105.605 51.0246C105.513 51.0817 105.513 51.1502 105.605 51.2529C105.697 51.3671 105.685 51.4356 105.547 51.5041C105.409 51.584 105.352 51.858 105.306 52.5773C105.271 53.1024 105.202 53.5477 105.133 53.5705C104.984 53.6276 105.007 54.0957 105.179 54.2669C105.294 54.3811 105.271 54.4268 105.11 54.5181C104.995 54.5866 104.949 54.6893 104.995 54.7693C105.11 54.9519 105.122 55.0661 105.191 58.1828C105.237 59.7926 105.214 60.9 105.156 60.9C105.099 60.9 105.03 60.8658 105.007 60.8087C104.995 60.763 104.662 60.5004 104.282 60.2264C103.903 59.941 103.397 59.5757 103.167 59.393C102.937 59.2218 102.707 59.0733 102.649 59.0733C102.603 59.0733 102.431 58.9706 102.27 58.845C102.109 58.7194 101.902 58.6167 101.81 58.6167C101.718 58.6167 101.568 58.5139 101.488 58.3883C101.407 58.2628 101.269 58.16 101.166 58.16C101.062 58.16 100.855 58.0573 100.694 57.9317C100.533 57.8061 100.338 57.7033 100.257 57.7033C100.177 57.7033 99.9125 57.6006 99.6595 57.4864C98.8085 57.0526 97.601 56.6416 97.0605 56.5845C96.7615 56.5617 96.4855 56.4818 96.451 56.4361C96.4165 56.379 96.1865 56.3333 95.945 56.3333C95.7035 56.3333 95.4735 56.2877 95.439 56.2306C95.3585 56.1164 94.2775 55.9223 93.07 55.8082C91.207 55.6255 86.262 55.7511 85.8135 56.0023C85.6985 56.0593 85.3995 56.105 85.1465 56.105C84.8935 56.105 84.652 56.1507 84.6175 56.2192C84.583 56.2763 84.399 56.3333 84.215 56.3333C84.031 56.3333 83.847 56.379 83.8125 56.4475C83.778 56.5046 83.525 56.5617 83.2605 56.5617C82.9845 56.5617 82.5705 56.6644 82.3175 56.79C82.0645 56.9156 81.7655 57.0183 81.6275 57.0183C81.386 57.0183 80.903 57.1896 80.167 57.5093C79.9255 57.6234 79.661 57.7033 79.5805 57.7033C79.4885 57.7033 79.109 57.8518 78.741 58.0344C78.373 58.2171 77.9705 58.3998 77.8555 58.434C77.384 58.5824 77.5105 58.845 78.511 59.804C79.27 60.5233 79.5 60.8201 79.5 61.0484C79.5 61.2197 79.454 61.3567 79.408 61.3567C79.3505 61.3567 79.247 61.6307 79.155 61.9503C79.0745 62.2814 78.948 62.6468 78.8675 62.7609C78.7295 62.9436 78.718 62.9436 78.5455 62.6924C78.442 62.5326 78.1775 62.3157 77.959 62.2015C77.5795 61.996 75.061 59.7241 74.509 59.0848C73.5315 57.9545 72.646 57.1439 72.3355 57.0983C71.864 57.0298 71.22 57.6805 71.22 58.2399C71.22 58.6852 71.3925 59.0619 71.703 59.2788C71.818 59.3588 71.91 59.53 71.91 59.6442C71.91 59.7698 72.0135 59.9182 72.14 59.9867C72.2665 60.0552 72.37 60.1808 72.37 60.2721C72.37 60.3634 72.416 60.4433 72.485 60.4433C72.5425 60.4433 72.7265 60.6374 72.8875 60.8772C73.0485 61.1283 73.313 61.3909 73.4625 61.4708C73.6235 61.5508 73.75 61.7106 73.75 61.8133C73.75 61.9047 73.911 62.0873 74.095 62.2015C74.2905 62.3043 74.417 62.4413 74.3825 62.4983C74.348 62.5554 74.417 62.6582 74.5435 62.7153C74.67 62.7838 74.854 63.0007 74.946 63.1948C75.107 63.5144 75.107 63.5943 74.9575 63.8569C74.7505 64.2451 74.2675 65.1927 74.0375 65.695C73.658 66.517 73.3705 66.9965 72.853 67.6929C72.554 68.0925 72.0825 68.7318 71.795 69.1086C71.5075 69.4968 71.1625 69.8963 71.0245 69.9877C70.875 70.079 70.76 70.2274 70.76 70.3188C70.76 70.4101 70.6795 70.49 70.5875 70.49C70.484 70.49 70.323 70.6384 70.208 70.8211C70.1045 71.0038 69.886 71.2321 69.7135 71.3348C69.5525 71.4262 69.288 71.6888 69.1385 71.9171C68.989 72.134 68.736 72.3738 68.575 72.4537C68.1265 72.682 67.2065 73.3898 67.195 73.5154C67.195 73.5725 66.873 73.8351 66.4705 74.0863C65.631 74.6228 65.6425 74.6114 65.125 75.0338C64.9065 75.2165 64.6075 75.4106 64.458 75.4448C64.1475 75.5476 63.63 76.0043 63.63 76.1869C63.63 76.2554 63.5035 76.3125 63.354 76.3125C63.2045 76.3125 63.0205 76.3924 62.94 76.4838C62.8595 76.5751 62.7445 76.655 62.687 76.655C62.6295 76.655 62.365 76.792 62.1005 76.9633C61.238 77.5227 61.192 77.5569 59.145 78.6073C58.8 78.7899 58.432 78.984 58.34 79.0411C58.248 79.0982 58.041 79.1895 57.88 79.258C57.42 79.4407 56.546 79.8288 55.9595 80.1028C55.649 80.2513 55.3845 80.3654 55.35 80.3654C55.074 80.3997 54.6485 80.628 54.2805 80.902C54.039 81.0961 53.7745 81.2103 53.6825 81.176C53.3835 81.0733 51.8425 81.6898 51.739 81.9638C51.7045 82.0665 51.532 82.135 51.302 82.135C51.095 82.135 50.796 82.2378 50.635 82.3633C50.474 82.4889 50.2785 82.5917 50.198 82.5917C50.0025 82.5917 49.6 82.82 49.1975 83.1739C49.0135 83.3452 48.703 83.505 48.5305 83.5507C48.197 83.6306 47.3 84.4412 47.3 84.6581C47.3 84.7152 47.1505 84.8293 46.955 84.8864C46.7595 84.9549 46.61 85.0805 46.61 85.1718C46.61 85.2518 46.3455 85.5828 46.035 85.8911C45.713 86.2108 45.46 86.5647 45.46 86.7017C45.46 86.8273 45.414 86.93 45.345 86.93C45.2875 86.93 45.23 87.067 45.23 87.2268C45.23 87.4209 45.161 87.5465 45 87.5808C44.8735 87.615 44.77 87.6949 44.77 87.7634C44.77 87.8319 44.6205 88.1973 44.4365 88.574C44.2525 88.9622 44.0455 89.4873 43.965 89.7613C43.804 90.3778 43.5625 90.3322 43.344 89.6358C43.3095 89.533 43.183 89.4417 43.068 89.4417C42.953 89.4417 42.6425 89.2248 42.3895 88.9508C41.711 88.2315 40.607 87.2611 40.3195 87.1241C40.17 87.0556 40.055 86.9643 40.055 86.9186C40.055 86.7473 39.434 86.245 39.227 86.245C39.112 86.245 39.02 86.1765 39.02 86.0966C39.02 86.0053 38.8245 85.8454 38.5945 85.7427C38.054 85.5029 37.7895 85.0348 38.0425 84.7608C38.1345 84.6581 38.2495 84.3384 38.284 84.0416C38.33 83.7562 38.422 83.4936 38.5025 83.4593C38.583 83.4365 38.6865 83.2424 38.7325 83.0369C38.836 82.5917 39.02 82.2263 39.227 82.1008C39.296 82.0551 39.365 81.9409 39.365 81.8496C39.365 81.7697 39.434 81.6213 39.5145 81.5413C39.6065 81.4614 39.6985 81.3358 39.7215 81.2559C39.825 80.9819 41.2395 79.3608 41.527 79.2009C41.6995 79.0982 42.01 78.8013 42.217 78.5273C42.424 78.2533 42.6655 78.025 42.7575 78.025C42.8495 78.025 43.275 77.7624 43.7005 77.4428C44.126 77.1231 44.655 76.7806 44.8505 76.7007C45.0575 76.6093 45.3105 76.4153 45.414 76.2554C45.5175 76.0956 45.644 75.9928 45.69 76.0271C45.736 76.0499 45.897 75.97 46.0465 75.8444C46.2075 75.7074 46.4375 75.6275 46.6215 75.6503C46.794 75.6618 47.0355 75.5933 47.1505 75.4905C47.2655 75.3878 47.507 75.2622 47.691 75.2165C47.8635 75.1823 48.243 75.0224 48.5305 74.874C48.8065 74.7256 49.14 74.6 49.2665 74.6C49.5195 74.6 50.4855 74.1662 50.589 74.0178C50.6235 73.9607 50.773 73.915 50.934 73.915C51.0835 73.915 51.21 73.8579 51.21 73.8008C51.21 73.7323 51.3825 73.6867 51.601 73.6867C52.015 73.6867 52.82 73.4013 52.82 73.2414C52.82 73.1958 53.1765 73.093 53.6135 73.0131C54.0965 72.9218 54.4415 72.8076 54.476 72.7048C54.5105 72.6135 54.614 72.545 54.6945 72.545C54.936 72.545 55.58 72.2025 55.58 72.0769C55.58 72.0084 55.6835 71.9856 55.81 72.0313C55.948 72.0769 56.247 71.9856 56.615 71.7801C57.1095 71.5175 57.19 71.4148 57.1325 71.1978C57.0635 70.901 57.1555 70.8782 57.512 71.1293C57.765 71.3006 57.7995 71.3006 58.041 71.0723C58.179 70.9353 58.386 70.8325 58.4895 70.8325C58.6045 70.8325 58.7195 70.7526 58.754 70.6613C58.8 70.5699 58.892 70.49 58.9725 70.49C59.053 70.49 59.1795 70.4101 59.26 70.3188C59.3405 70.2274 59.5015 70.1475 59.6165 70.1475C59.743 70.1475 59.835 70.079 59.835 69.9877C59.835 69.8963 59.996 69.7822 60.2145 69.7479C60.41 69.7023 60.755 69.4853 60.962 69.2798C61.192 69.0515 61.4565 68.8917 61.6175 68.8917C61.8015 68.8917 61.905 68.8232 61.905 68.7204C61.905 68.6177 62.0085 68.5492 62.1465 68.5492C62.2845 68.5492 62.411 68.4578 62.4455 68.3323C62.48 68.1953 62.641 68.0697 62.8595 68.024C63.2045 67.9555 64.688 66.8024 64.757 66.5627C64.7685 66.4942 64.9985 66.3343 65.24 66.2202C65.6195 66.0375 65.7 65.9462 65.7 65.6608C65.7 65.4324 65.769 65.3183 65.93 65.2726C66.0565 65.2383 66.16 65.1698 66.16 65.1128C66.16 65.0557 66.275 65.0214 66.4015 65.0443C66.689 65.0671 67.057 64.5533 67.0685 64.1081C67.08 63.9254 67.126 63.8683 67.241 63.9026C67.425 63.9711 67.77 63.5373 67.77 63.2404C67.77 63.1491 67.885 63.0121 68.0345 62.955C68.4255 62.7952 68.736 62.4755 68.9545 62.0188C69.0695 61.7905 69.2075 61.5622 69.265 61.5279C69.334 61.4937 69.38 61.3338 69.38 61.174C69.38 61.0142 69.4605 60.8658 69.5525 60.8315C69.6905 60.7744 69.7135 60.6603 69.656 60.3748C69.5985 60.078 69.6215 59.9867 69.7595 59.9867C69.978 59.9867 70.07 59.7469 69.9895 59.4273C69.955 59.2674 69.978 59.1875 70.0815 59.1875C70.1735 59.1875 70.346 59.0505 70.461 58.8793C70.668 58.6053 70.668 58.571 70.4955 58.4454C70.2655 58.2856 70.231 57.5892 70.4495 57.5892C70.5185 57.5892 70.691 57.5093 70.806 57.4179C71.0015 57.2695 71.013 57.2124 70.875 56.9613C70.737 56.7101 70.7485 56.653 70.9325 56.4475C71.128 56.242 71.128 56.2078 70.944 55.9338C70.8175 55.7397 70.76 55.4543 70.7715 55.1232C70.806 54.6893 70.76 54.5638 70.4955 54.324C70.323 54.1642 70.185 53.913 70.185 53.7646C70.185 53.3993 69.8975 53.1367 69.472 53.1367C69.2305 53.1367 69.1155 53.0682 69.0695 52.9083C68.9775 52.5544 68.7245 52.6343 68.575 53.0796C68.506 53.2965 68.345 53.5363 68.23 53.5933C68.115 53.6504 67.954 53.8902 67.885 54.1071C67.816 54.324 67.7125 54.5067 67.6665 54.5067C67.632 54.5067 67.5285 54.7464 67.4365 55.0433C67.356 55.3515 67.2295 55.7168 67.149 55.8767C67.057 56.0365 66.9075 56.4475 66.7925 56.79C66.6775 57.1325 66.551 57.4636 66.4935 57.5207C66.436 57.5892 66.39 57.7148 66.39 57.8175C66.39 58.0002 65.884 58.8336 65.332 59.5414C65.148 59.7698 65.01 60.0095 65.01 60.0894C65.01 60.3634 61.744 63.6857 61.031 64.1195C60.7895 64.2793 60.479 64.5419 60.3525 64.7132C60.226 64.8844 59.8465 65.1813 59.5015 65.3753C58.9035 65.7178 58.7885 65.8092 58.202 66.3229C58.064 66.4485 57.8455 66.5627 57.7305 66.5741C57.443 66.6198 56.546 67.2477 56.4655 67.4532C56.4195 67.5559 56.316 67.6016 56.2125 67.5673C56.0975 67.5217 56.04 67.5673 56.04 67.7386C56.04 68.0012 55.856 68.0697 55.7755 67.8299C55.741 67.7043 55.4765 67.8071 54.522 68.3208C54.407 68.3893 54.223 68.4807 54.1195 68.5492C54.0045 68.6063 53.6825 68.7661 53.395 68.9031C53.1075 69.0401 52.682 69.2456 52.4405 69.3598C52.1875 69.4853 51.946 69.5767 51.877 69.5767C51.8195 69.5767 51.6355 69.6794 51.4745 69.805C51.3135 69.9306 51.026 70.0333 50.842 70.0333C50.6465 70.0333 50.3935 70.1475 50.2325 70.3073C50.0485 70.49 49.876 70.5585 49.6805 70.5243C49.4735 70.4786 49.347 70.5357 49.232 70.7069C49.1515 70.8439 48.9675 70.9467 48.8295 70.9467C48.4615 70.9467 48.22 71.0608 48.22 71.2435C48.22 71.3577 48.082 71.4033 47.783 71.4033C47.5415 71.4033 47.1275 71.5289 46.84 71.6773C46.5525 71.8372 45.7245 72.2596 45 72.6249C44.2065 73.0245 43.4935 73.4812 43.183 73.7666C42.9185 74.0406 42.6195 74.2575 42.539 74.2575C42.3205 74.2575 41.78 74.7028 41.78 74.8968C41.78 74.9768 41.596 75.1252 41.3775 75.2165C41.159 75.3193 40.929 75.5019 40.883 75.6389C40.8255 75.7759 40.584 76.0043 40.331 76.1413C40.078 76.2897 39.894 76.4723 39.894 76.5865C39.9055 76.6893 39.7445 76.8491 39.5145 76.9633C39.296 77.066 39.066 77.2601 39.02 77.4085C38.9625 77.5455 38.8475 77.7053 38.7555 77.7624C38.5025 77.8994 37.3525 79.5891 36.9615 80.3654C36.49 81.3244 36.03 82.5688 36.03 82.8885C36.03 83.0255 35.984 83.1853 35.915 83.2196C35.7655 83.3109 35.7655 83.8818 35.9265 84.0416C36.0185 84.1329 36.0185 84.19 35.9265 84.2357C35.777 84.327 35.754 85.4002 35.9035 85.4915C35.961 85.5258 36.007 85.7541 36.0185 85.9824C36.0415 86.8273 36.444 87.615 37.065 87.9803C37.5365 88.2658 38.56 89.259 38.56 89.4303C38.56 89.4873 38.79 89.7842 39.0775 90.0924C39.365 90.3893 39.595 90.6747 39.595 90.7203C39.595 90.766 39.6525 90.8117 39.733 90.8117C39.802 90.8117 40.423 91.3711 41.113 92.0675C41.803 92.7525 42.4125 93.3233 42.4815 93.3233C42.539 93.3233 42.585 93.3918 42.585 93.4832C42.585 93.5745 42.746 93.7686 42.9415 93.917C43.137 94.0654 43.413 94.2938 43.5625 94.4422C43.804 94.6819 43.9075 94.7048 44.7355 94.6591L45.6325 94.6134L45.667 93.9513C45.69 93.5745 45.759 93.2092 45.828 93.1293C45.8855 93.0493 45.9085 92.8553 45.874 92.7068C45.8395 92.547 45.851 92.3872 45.92 92.3529C45.9775 92.3187 46.035 92.1931 46.035 92.0903C46.035 91.9876 46.104 91.7593 46.196 91.588C46.288 91.4282 46.4145 91.0971 46.495 90.8459C46.5755 90.6062 46.725 90.3093 46.84 90.1838C46.955 90.0582 47.0815 89.8298 47.1275 89.6814C47.1735 89.533 47.484 89.1106 47.829 88.7453C48.174 88.3799 48.45 87.9689 48.45 87.8319C48.45 87.6607 48.5075 87.615 48.657 87.6607C48.7835 87.7063 49.0365 87.5579 49.3815 87.2268C49.899 86.7588 51.624 85.7883 51.969 85.7883C52.061 85.7883 52.222 85.7427 52.337 85.6856C52.8315 85.423 53.395 85.2175 53.6135 85.2175C53.74 85.2175 53.8895 85.149 53.9355 85.0577C53.9815 84.9778 54.2575 84.875 54.545 84.8408C54.8325 84.8065 55.1775 84.738 55.327 84.6923C55.4765 84.6467 55.58 84.6695 55.58 84.7494C55.58 84.8179 55.511 84.875 55.442 84.875C55.3615 84.8864 55.1085 85.0348 54.89 85.2175C54.6715 85.4116 54.43 85.56 54.3495 85.56C54.269 85.56 54.2 85.6057 54.2 85.6628C54.2 85.7198 53.901 85.834 53.5445 85.9025C52.521 86.1194 51.9 86.5875 51.9 87.1583C51.9 87.3182 51.7965 87.6721 51.67 87.9347C51.5435 88.1858 51.44 88.4484 51.44 88.5055C51.44 88.6083 51.0605 89.4531 50.8765 89.7842C50.819 89.8755 50.704 90.1838 50.6235 90.4692C50.543 90.7546 50.336 91.314 50.152 91.725C49.968 92.136 49.7725 92.5698 49.7265 92.6954C49.6805 92.821 49.531 93.1521 49.4045 93.4375C49.278 93.7229 49.0595 94.2823 48.9215 94.6933C48.7835 95.1043 48.6225 95.5382 48.565 95.6638C48.5075 95.7893 48.381 96.1775 48.2775 96.5314C48.1855 96.8853 48.0245 97.2621 47.9325 97.3877C47.8405 97.5018 47.76 97.7644 47.76 97.9699C47.76 98.1754 47.6565 98.5293 47.53 98.7463C47.4035 98.9746 47.2425 99.5226 47.185 99.9564C47.116 100.402 46.9895 100.87 46.8975 101.007C46.8055 101.144 46.725 101.418 46.725 101.612C46.725 101.817 46.679 102 46.6215 102.023C46.5065 102.057 46.4145 102.548 46.2765 103.655C46.2305 104.032 46.1385 104.455 46.058 104.592C45.9775 104.729 45.92 105.014 45.92 105.242C45.92 105.459 45.8625 105.676 45.805 105.71C45.736 105.745 45.7245 105.973 45.759 106.201C45.805 106.464 45.759 106.818 45.6325 107.138C45.529 107.423 45.4485 107.845 45.46 108.085C45.46 108.336 45.414 108.587 45.3565 108.667C45.2875 108.747 45.2185 109.158 45.1955 109.581C45.1725 110.003 45.115 110.38 45.046 110.426C44.9885 110.471 44.9425 110.757 44.931 111.076C44.9195 111.853 44.77 113.44 44.6895 113.645C44.6205 113.851 44.586 114.045 44.4365 115.403C44.3675 115.963 44.264 116.591 44.1835 116.807C44.08 117.116 44.0915 117.264 44.195 117.481C44.3215 117.698 44.3215 117.778 44.195 117.926C44.08 118.063 44.08 118.132 44.195 118.269C44.3215 118.417 44.31 118.509 44.1835 118.76C44.103 118.931 44.0225 119.399 44.011 119.81C43.9535 121.066 43.896 121.694 43.804 121.854C43.758 121.922 43.7465 122.116 43.781 122.265C43.8155 122.413 43.804 122.561 43.735 122.607C43.666 122.653 43.6775 122.778 43.758 122.95C43.85 123.144 43.85 123.315 43.7695 123.486C43.712 123.635 43.643 124.183 43.6315 124.719C43.62 125.256 43.5625 125.895 43.5165 126.146C43.459 126.397 43.436 126.957 43.4475 127.402C43.4705 127.836 43.459 128.236 43.436 128.281C43.4015 128.327 43.3555 129.126 43.3325 130.051C43.298 130.987 43.252 132.094 43.206 132.54C43.1715 132.973 43.137 133.875 43.114 134.538C43.1025 135.2 43.0565 135.816 43.0105 135.908C42.976 135.999 42.907 136.672 42.8725 137.392C42.8265 138.111 42.769 139.036 42.7345 139.447C42.7115 139.858 42.6885 140.52 42.6885 140.919C42.7 141.319 42.654 141.707 42.5965 141.776C42.539 141.844 42.47 142.609 42.4355 143.465C42.401 144.322 42.3435 145.075 42.309 145.144C42.263 145.201 42.2285 145.726 42.217 146.297C42.2055 146.868 42.1595 147.358 42.102 147.393C42.056 147.427 42.01 147.655 42.01 147.906C42.01 148.706 41.918 148.82 39.71 150.635C39.0545 151.183 38.307 151.742 37.7895 152.085C37.525 152.256 37.2605 152.519 37.1915 152.667C37.111 152.838 36.9615 152.918 36.7545 152.918C36.398 152.93 36.1105 153.101 35.9955 153.398C35.9495 153.523 35.8 153.603 35.639 153.603C35.478 153.603 35.2135 153.729 35.041 153.889C34.88 154.037 34.558 154.197 34.3395 154.243C34.121 154.288 33.8795 154.414 33.8105 154.528C33.73 154.654 33.569 154.745 33.431 154.745C33.293 154.745 33.0515 154.848 32.8905 154.973C32.7295 155.099 32.4995 155.202 32.373 155.202C32.1085 155.202 31.844 155.487 31.9475 155.658C31.9935 155.727 31.7635 155.773 31.269 155.773C30.7975 155.773 30.464 155.83 30.372 155.932C30.211 156.081 29.82 156.184 28.9575 156.286C28.6585 156.321 28.4285 156.435 28.302 156.595C28.164 156.789 27.9915 156.857 27.589 156.857C26.2435 156.88 26.2435 158.033 27.589 158.924C27.865 159.106 29.6935 159.175 29.958 159.015C30.0385 158.958 30.303 158.912 30.5445 158.901C30.786 158.889 31.039 158.832 31.1195 158.775C31.2 158.718 31.545 158.604 31.89 158.513C32.235 158.433 32.695 158.273 32.902 158.147C33.109 158.033 33.3505 157.942 33.431 157.942C33.5115 157.942 33.73 157.873 33.914 157.782C34.098 157.691 34.4545 157.531 34.7075 157.417C34.9605 157.302 35.3055 157.12 35.478 157.006C35.6505 156.891 36.0415 156.652 36.3635 156.48C37.479 155.864 39.296 154.562 40.216 153.706C40.4115 153.523 40.607 153.375 40.653 153.375C40.768 153.375 43.1025 151.08 43.8615 150.224C44.7585 149.219 45.805 147.975 45.9545 147.712C46.3685 147.016 46.5755 146.685 46.817 146.331C46.955 146.125 47.07 145.874 47.07 145.794C47.07 145.703 47.1505 145.577 47.2425 145.498C47.3345 145.418 47.4035 145.269 47.392 145.178C47.346 144.915 47.7485 144.87 47.921 145.109C48.0475 145.269 48.174 145.292 48.5995 145.235C49.002 145.178 49.1745 145.201 49.3125 145.338C49.4045 145.44 49.6805 145.52 49.899 145.532C50.244 145.543 50.359 145.623 50.6465 146.034C50.842 146.308 51.0375 146.525 51.095 146.525C51.2445 146.525 51.118 147.929 50.9225 148.477C50.8305 148.728 50.7845 148.991 50.819 149.082C50.8535 149.162 50.796 149.265 50.704 149.299C50.589 149.345 50.52 149.516 50.52 149.779C50.52 150.053 50.451 150.224 50.29 150.315C50.1635 150.395 50.06 150.532 50.06 150.612C50.06 150.704 49.9335 150.932 49.7725 151.115C49.6115 151.297 49.508 151.491 49.5425 151.548C49.5655 151.594 49.439 151.754 49.255 151.891C49.0595 152.039 48.91 152.245 48.91 152.359C48.91 152.462 48.703 152.736 48.45 152.953C48.197 153.17 47.99 153.375 47.99 153.409C47.99 153.569 45.943 155.533 45.598 155.704C45.3105 155.852 45.23 155.955 45.2875 156.126C45.345 156.298 45.3105 156.343 45.092 156.343C44.931 156.343 44.6895 156.492 44.517 156.686C44.356 156.869 44.1145 157.028 43.9995 157.028C43.873 157.028 43.666 157.188 43.5165 157.371C43.3785 157.565 43.2175 157.691 43.16 157.656C43.1025 157.622 42.9875 157.691 42.907 157.793C42.8265 157.907 42.6195 158.067 42.447 158.159C42.263 158.25 42.125 158.364 42.125 158.421C42.125 158.467 42.056 158.513 41.987 158.513C41.7915 158.513 40.4805 159.403 40.3655 159.609C40.3195 159.7 40.17 159.768 40.0435 159.768C39.7675 159.768 38.905 160.191 38.905 160.328C38.905 160.385 38.698 160.465 38.445 160.51C38.192 160.556 37.9505 160.647 37.9045 160.727C37.778 160.921 37.364 161.138 37.0995 161.138C36.973 161.138 36.766 161.287 36.628 161.469C36.421 161.755 36.2715 161.823 35.7195 161.892C34.5465 162.029 34.052 162.154 34.144 162.291C34.1785 162.349 33.9485 162.394 33.638 162.394C33.086 162.394 33.04 162.36 32.304 161.652C31.89 161.241 31.4875 160.91 31.43 160.91C31.2805 160.91 30.8665 160.682 30.579 160.419C30.4525 160.316 30.234 160.225 30.096 160.225C29.9465 160.225 29.8085 160.179 29.7625 160.111C29.6705 159.962 29.13 160.214 29.13 160.408C29.13 160.488 29.0265 160.613 28.9 160.682C28.6355 160.819 28.624 160.91 28.7965 161.538C28.9575 162.097 30.648 163.81 30.947 163.719C31.1885 163.639 31.3035 163.719 31.706 164.255C31.89 164.483 32.0855 164.678 32.1545 164.678C32.2235 164.678 32.373 164.769 32.488 164.872C32.6605 165.031 32.9135 165.066 33.8105 165.043C34.42 165.043 34.972 164.974 35.041 164.906C35.0985 164.849 35.3285 164.792 35.524 164.792C35.731 164.792 35.938 164.746 35.9725 164.678C36.007 164.62 36.145 164.563 36.2715 164.563C36.3865 164.563 36.582 164.518 36.697 164.461C36.8005 164.392 37.1685 164.255 37.5135 164.152C37.8585 164.05 38.5255 163.787 38.997 163.57C40.032 163.102 40.147 163.159 39.9515 164.015C39.871 164.346 39.7675 164.906 39.71 165.248C39.503 166.584 39.3535 167.258 39.1925 167.68C39.1005 167.908 39.02 168.251 39.02 168.422C39.02 168.593 38.9395 169.016 38.836 169.358C38.6175 170.158 38.5025 170.614 38.2955 171.505C38.2035 171.904 38.0655 172.292 37.9965 172.361C37.9275 172.429 37.87 172.589 37.87 172.703C37.87 172.818 37.801 173.08 37.709 173.274C37.6285 173.48 37.4675 173.891 37.3525 174.21C37.249 174.519 37.1225 174.884 37.065 175.01C36.7545 175.752 36.536 176.231 36.191 176.916C35.9725 177.339 35.8 177.807 35.8 177.955C35.8 178.104 35.7195 178.389 35.616 178.594C35.3745 179.074 35.478 179.462 35.892 179.611C36.076 179.668 36.3405 179.896 36.467 180.113C36.605 180.33 36.858 180.57 37.0305 180.649C37.3295 180.786 37.3755 180.764 37.801 180.318C38.2035 179.885 38.2725 179.85 38.5255 179.964C38.675 180.033 38.928 180.09 39.0775 180.09C39.227 180.09 39.3765 180.136 39.411 180.181C39.4455 180.238 39.848 180.341 40.308 180.433C41.504 180.638 41.987 180.764 42.0675 180.889C42.102 180.958 42.309 181.003 42.5275 181.003C42.746 181.003 42.953 181.049 42.9875 181.118C43.022 181.175 43.2865 181.232 43.5625 181.232C43.8385 181.232 44.103 181.277 44.1375 181.346C44.172 181.403 44.356 181.46 44.54 181.46C44.724 181.46 44.8965 181.506 44.931 181.563C44.9655 181.608 45.3795 181.688 45.8625 181.723C46.3455 181.768 46.9665 181.905 47.2425 182.031C47.5185 182.156 48.0705 182.293 48.45 182.339C48.8295 182.373 49.1745 182.453 49.209 182.499C49.2435 182.556 49.439 182.602 49.646 182.602C49.8645 182.602 50.1865 182.682 50.359 182.773C50.543 182.864 50.8765 182.944 51.095 182.944C51.3135 182.956 51.624 183.024 51.785 183.115C51.946 183.207 52.245 183.275 52.4635 183.287C52.682 183.287 53.257 183.389 53.7285 183.504C54.66 183.743 57.052 184.211 57.535 184.246C57.696 184.257 57.972 184.326 58.1445 184.406C58.3285 184.485 58.662 184.543 58.892 184.543C59.1335 184.543 59.421 184.611 59.5475 184.702C59.674 184.782 59.9845 184.885 60.2375 184.919C61.5945 185.091 63.124 185.376 63.216 185.467C63.285 185.524 63.5035 185.57 63.7105 185.57C63.929 185.57 64.3085 185.673 64.573 185.81C65.3435 186.198 66.2865 186.472 66.551 186.381C67.011 186.221 67.862 186.244 68.4715 186.426C68.8165 186.529 69.3225 186.632 69.61 186.666C70.7025 186.769 70.944 186.814 71.266 186.94C71.45 187.009 71.749 187.031 71.933 186.997C72.117 186.951 72.3355 186.974 72.416 187.043C72.5655 187.168 74.463 187.614 74.8655 187.614C75.2105 187.614 75.751 187.694 75.935 187.773C76.027 187.819 76.809 187.956 77.66 188.082C78.511 188.219 79.6495 188.39 80.19 188.481C81.294 188.653 81.4435 188.584 81.4665 187.922C81.478 187.591 81.501 187.328 81.616 186.141C81.708 185.091 81.7885 183.869 81.869 182.316C81.9035 181.437 81.984 180.079 82.0415 179.291C82.099 178.503 82.145 177.784 82.1335 177.693C82.1335 177.601 82.122 174.93 82.099 171.756C82.0645 168.582 82.0185 165.191 81.984 164.221C81.892 161.595 81.7885 159.163 81.777 158.969C81.7655 158.878 81.777 158.627 81.777 158.41C81.8 158.079 81.823 158.044 81.9725 158.17C82.076 158.25 82.2485 158.535 82.375 158.787C82.49 159.049 82.697 159.357 82.8235 159.472C82.9615 159.597 83.065 159.757 83.065 159.837C83.065 159.917 83.134 160.031 83.2145 160.077C83.3525 160.157 83.548 160.408 84.422 161.629C84.56 161.835 84.8705 162.2 85.112 162.44C85.342 162.691 85.5605 162.954 85.595 163.034C85.7905 163.524 89.7925 167.68 90.2985 167.92C90.4135 167.966 90.5745 168.137 90.6435 168.285C90.7125 168.434 91.023 168.696 91.345 168.867C91.6555 169.05 91.92 169.233 91.92 169.278C91.92 169.438 92.5525 170.009 92.9665 170.237C93.185 170.352 93.461 170.534 93.5875 170.648C94.059 171.071 95.094 171.824 95.4275 171.984C95.623 172.076 95.876 172.27 96.0025 172.395C96.129 172.532 96.3475 172.681 96.4855 172.715C96.612 172.761 96.796 172.863 96.865 172.955C96.9455 173.046 97.095 173.126 97.21 173.126C97.325 173.126 97.44 173.206 97.486 173.297C97.5205 173.388 97.647 173.468 97.762 173.468C97.877 173.468 98.0725 173.571 98.1875 173.697C98.3025 173.822 98.452 173.925 98.5325 173.925C98.613 173.925 98.7625 174.028 98.8775 174.153C98.9925 174.279 99.1765 174.382 99.2915 174.382C99.5445 174.382 99.901 174.53 100.487 174.895C100.74 175.055 101.074 175.238 101.235 175.295C101.396 175.364 101.683 175.489 101.867 175.569C102.638 175.912 103.098 176.094 103.96 176.38C104.455 176.539 105.018 176.745 105.214 176.836C105.398 176.928 105.674 176.973 105.812 176.939C105.961 176.893 106.214 176.962 106.444 177.11C106.663 177.247 106.95 177.35 107.077 177.35C107.203 177.35 107.353 177.396 107.387 177.464C107.422 177.521 107.606 177.578 107.778 177.578C107.951 177.578 108.135 177.624 108.192 177.681C108.261 177.738 108.514 177.807 108.767 177.841C109.02 177.887 109.515 177.967 109.86 178.035C112.505 178.56 119.566 178.64 120.164 178.149C120.256 178.058 120.486 178.035 120.727 178.069C121.026 178.115 121.13 178.092 121.13 177.967C121.13 177.772 121.233 177.761 121.647 177.921C121.877 178.012 121.958 178.001 122.015 177.852C122.061 177.738 122.188 177.704 122.441 177.738C122.74 177.784 123.027 177.75 123.832 177.544C123.901 177.521 124.361 177.419 124.867 177.293C125.373 177.179 125.868 177.019 125.96 176.95C126.052 176.871 126.316 176.768 126.535 176.722C127.041 176.631 127.685 176.345 127.685 176.208C127.685 176.163 127.788 176.14 127.903 176.174C128.03 176.208 128.317 176.094 128.57 175.934C128.823 175.763 129.111 175.66 129.203 175.695C129.306 175.729 129.582 175.649 129.824 175.512C130.077 175.375 130.514 175.192 130.824 175.101C131.25 174.975 131.365 174.895 131.365 174.69C131.365 174.507 131.399 174.484 131.468 174.599C131.606 174.816 132.055 174.644 132.055 174.382C132.055 174.085 132.503 173.845 132.641 174.051C132.722 174.176 132.779 174.188 132.94 174.073C133.055 173.994 133.366 173.822 133.642 173.674C133.929 173.525 134.113 173.366 134.079 173.274C134.044 173.194 134.067 173.103 134.125 173.069C134.171 173.035 134.24 173.069 134.263 173.137C134.309 173.286 135.505 172.669 135.746 172.372C135.827 172.281 136.045 172.133 136.241 172.041C136.436 171.961 136.747 171.744 136.942 171.562C137.264 171.254 137.563 171.048 137.92 170.888C138.207 170.763 138.61 170.352 138.61 170.203C138.61 170.123 138.541 170.043 138.472 170.009C138.391 169.986 138.357 169.918 138.403 169.872C138.46 169.815 138.598 169.872 138.725 169.986C138.943 170.18 138.955 170.18 139.058 169.918C139.116 169.758 139.3 169.564 139.472 169.473C139.633 169.381 139.829 169.221 139.886 169.107C139.944 168.993 140.093 168.902 140.208 168.902C140.335 168.902 140.553 168.753 140.703 168.582C140.852 168.399 141.117 168.217 141.278 168.182L141.577 168.103L141.6 170.078C141.611 171.151 141.634 172.27 141.657 172.555C141.68 172.84 141.726 174.222 141.772 175.638C141.818 177.053 141.887 178.252 141.922 178.309C142.037 178.515 142.048 179.005 141.922 179.142C141.841 179.245 141.841 179.337 141.945 179.462C142.014 179.553 142.048 179.668 142.014 179.725C141.991 179.77 142.002 180.17 142.06 180.615C142.163 181.369 142.37 184.052 142.474 186.141C142.508 186.677 142.577 187.328 142.635 187.591C142.704 187.853 142.75 188.39 142.761 188.79C142.761 189.189 142.842 190.102 142.922 190.822C143.014 191.541 143.152 192.751 143.221 193.505C143.29 194.258 143.405 194.92 143.463 194.989C143.566 195.103 143.946 195.126 147.005 195.206C147.798 195.217 148.442 195.251 148.442 195.274C148.442 195.308 150.961 195.377 154.652 195.434C157.907 195.491 157.573 195.491 159.252 195.503C159.954 195.503 160.701 195.503 160.92 195.514C161.138 195.514 161.575 195.491 161.886 195.457C162.242 195.411 162.507 195.434 162.61 195.514C162.725 195.617 162.806 195.617 162.898 195.525C163.07 195.354 164.105 195.343 164.197 195.503C164.255 195.594 164.324 195.594 164.416 195.514C164.508 195.434 165.382 195.4 166.877 195.423C168.153 195.445 169.223 195.445 169.246 195.423C169.269 195.4 170.085 195.354 171.051 195.331C172.029 195.297 172.903 195.274 172.995 195.263C173.087 195.263 173.351 195.251 173.57 195.251C173.788 195.263 174.133 195.251 174.317 195.251C174.513 195.251 174.869 195.274 175.122 195.297C175.375 195.331 175.64 195.32 175.709 195.263C175.824 195.171 176.18 195.149 176.732 195.171C177.158 195.206 180.861 195.034 182.022 194.943C182.655 194.886 183.241 194.875 183.322 194.897C183.402 194.932 183.529 194.909 183.609 194.84C183.678 194.783 184.058 194.726 184.437 194.726C185.104 194.738 186.99 194.658 189.141 194.521C189.716 194.498 190.245 194.418 190.314 194.349C190.417 194.27 190.532 194.27 190.705 194.361C190.831 194.429 190.981 194.464 191.038 194.429C191.188 194.338 191.878 194.224 192.487 194.19C193.143 194.144 194.454 194.03 195.132 193.961C195.385 193.927 195.88 193.881 196.225 193.847C196.57 193.813 196.938 193.756 197.03 193.71C197.122 193.676 197.513 193.63 197.892 193.607C198.272 193.596 198.927 193.55 199.341 193.516C200.043 193.448 200.112 193.47 200.365 193.733C200.733 194.121 201.17 194.121 201.17 193.733C201.17 193.493 201.227 193.448 201.526 193.448H201.894L201.837 192.614C201.779 191.895 201.607 191.187 201.296 190.422C201.135 190.034 200.848 189.075 200.756 188.664C200.721 188.447 200.583 188.116 200.468 187.922C200.353 187.728 200.25 187.477 200.25 187.351C200.25 187.237 200.123 186.894 199.974 186.598C199.824 186.301 199.663 185.901 199.617 185.696C199.583 185.502 199.491 185.342 199.433 185.342C199.376 185.342 199.33 185.239 199.33 185.113C199.33 184.976 199.226 184.657 199.1 184.406C198.973 184.143 198.87 183.789 198.87 183.618C198.87 183.447 198.824 183.264 198.755 183.23C198.697 183.195 198.64 183.036 198.64 182.899C198.64 182.75 198.513 182.282 198.352 181.848C198.191 181.414 198.065 180.981 198.065 180.889C198.065 180.786 198.007 180.649 197.927 180.57C197.858 180.501 197.777 180.193 197.754 179.907C197.743 179.542 197.651 179.291 197.478 179.108C197.283 178.903 197.26 178.8 197.352 178.686C197.501 178.515 197.34 177.761 197.145 177.635C197.076 177.59 197.03 177.419 197.03 177.236C197.03 177.053 196.972 176.871 196.903 176.836C196.834 176.791 196.823 176.619 196.857 176.437C196.903 176.208 196.834 175.912 196.65 175.501C196.466 175.112 196.386 174.77 196.42 174.576C196.466 174.37 196.409 174.188 196.282 174.039C196.156 173.902 196.11 173.72 196.156 173.548C196.19 173.388 196.144 173.172 196.029 173.012C195.88 172.806 195.834 172.544 195.868 172.007C195.88 171.573 195.845 171.219 195.765 171.128C195.684 171.037 195.615 170.74 195.592 170.477C195.581 170.203 195.477 169.678 195.374 169.301C195.259 168.925 195.155 168.354 195.132 168.045C195.017 166.721 194.925 166.093 194.833 165.979C194.776 165.911 194.741 165.705 194.753 165.522C194.764 165.043 194.615 164.095 194.477 163.844C194.419 163.73 194.396 163.559 194.431 163.479C194.465 163.387 194.442 163.285 194.385 163.25C194.316 163.205 194.27 162.965 194.281 162.702C194.304 162.006 194.051 160.442 193.867 160.111C193.787 159.951 193.718 159.643 193.718 159.426C193.718 159.209 193.66 158.535 193.58 157.942C193.499 157.348 193.43 156.674 193.43 156.458C193.419 156.241 193.361 155.989 193.304 155.898C193.246 155.807 193.189 155.499 193.177 155.213C193.177 154.928 193.12 154.597 193.074 154.482C193.016 154.38 193.016 154.106 193.051 153.9C193.097 153.672 193.074 153.478 193.005 153.432C192.947 153.398 192.89 153.01 192.89 152.576C192.89 152.153 192.844 151.777 192.786 151.754C192.729 151.731 192.648 151.206 192.625 150.578C192.545 149.231 192.349 147.279 192.211 146.468C192.154 146.148 192.131 145.851 192.165 145.806C192.2 145.76 192.165 145.475 192.085 145.178C191.958 144.618 191.947 144.459 191.797 141.844C191.751 140.999 191.671 140.246 191.625 140.189C191.51 140.052 191.28 137.198 191.28 136.067C191.28 135.622 191.234 135.223 191.176 135.154C191.107 135.097 191.038 134.56 191.004 133.967C190.935 132.654 190.866 131.706 190.693 129.971C190.624 129.24 190.555 128.441 190.544 128.201C190.521 127.95 190.475 127.619 190.44 127.459C190.406 127.299 190.348 126.637 190.314 125.975C190.279 125.313 190.199 124.285 190.13 123.692C190.061 123.098 190.003 122.482 189.992 122.322C189.98 122.013 189.727 119.593 189.555 118.155C189.29 115.951 189.187 115.038 189.152 114.558C189.118 114.056 188.98 112.949 188.75 111.248C188.681 110.779 188.577 110.003 188.52 109.535C188.462 109.067 188.393 108.519 188.347 108.336C188.313 108.142 188.267 107.811 188.232 107.594C188.209 107.377 188.14 106.864 188.071 106.453C188.014 106.042 187.922 105.448 187.887 105.14C187.841 104.82 187.738 104.306 187.646 103.998C187.565 103.678 187.439 102.959 187.381 102.4C187.312 101.829 187.197 101.189 187.128 100.973C187.071 100.756 186.99 100.345 186.956 100.059C186.898 99.6025 186.588 98.0384 186.22 96.4629C186.151 96.1433 186.036 95.6295 185.978 95.3213C185.714 93.9056 185.231 91.8506 184.84 90.4692C184.725 90.0582 184.506 89.2933 184.368 88.7567C183.828 86.7245 183.287 84.9321 182.655 83.0483C182.137 81.4957 182.137 81.45 182.505 81.4272C182.689 81.4272 182.908 81.4158 183 81.4272C183.092 81.4272 183.207 81.3701 183.253 81.3016C183.31 81.1988 183.368 81.1988 183.483 81.313C183.667 81.4957 183.805 81.4843 183.805 81.2902C183.805 81.039 184 80.9705 184.253 81.1303C184.449 81.2445 184.541 81.2331 184.828 81.0162C185.024 80.8792 185.254 80.765 185.346 80.765C185.438 80.765 185.553 80.7079 185.599 80.6394C185.633 80.5709 185.794 80.5481 185.932 80.5823C186.139 80.6394 186.22 80.5938 186.277 80.4225C186.323 80.2855 186.496 80.1713 186.749 80.1257C186.979 80.08 187.22 79.943 187.324 79.7946C187.416 79.6576 187.634 79.5092 187.818 79.4749C188.002 79.4407 188.29 79.2466 188.474 79.0639C188.658 78.8698 188.888 78.71 188.98 78.71C189.072 78.71 189.302 78.5502 189.474 78.3675C189.658 78.1734 189.865 78.025 189.946 78.025C190.13 78.025 190.728 77.3743 190.935 76.9404C191.027 76.7463 191.199 76.5294 191.314 76.4495C191.418 76.3696 191.51 76.2212 191.51 76.1413C191.51 76.0499 191.671 75.9015 191.855 75.7988C192.05 75.696 192.2 75.5362 192.2 75.422C192.2 75.3078 192.246 75.1708 192.303 75.1023C192.43 74.9539 192.66 73.7552 192.66 73.1615C192.66 72.7733 192.602 72.6478 192.361 72.4879C192.142 72.3509 192.085 72.2253 192.131 72.0541C192.211 71.723 191.786 71.1408 191.51 71.2321C191.337 71.2892 191.291 71.2321 191.257 70.9238C191.211 70.4101 190.923 70.4329 190.762 70.9581C190.705 71.1864 190.578 71.4604 190.486 71.5632C190.406 71.6659 190.118 72.1683 189.854 72.6934C189.244 73.915 189.106 74.0748 188.002 74.8854C187.496 75.2622 187.013 75.6618 186.933 75.7645C186.852 75.8787 186.714 75.97 186.634 75.97C186.553 75.97 186.105 76.1641 185.633 76.4038C185.162 76.6436 184.334 76.9518 183.805 77.1003C183.264 77.2487 182.701 77.4199 182.551 77.4884C182.379 77.5798 181.551 77.6254 180.297 77.6254C178.722 77.6254 178.25 77.5912 177.928 77.4428C177.71 77.34 177.25 77.1688 176.905 77.0546C176.56 76.9404 176.134 76.7578 175.962 76.6436C175.801 76.518 175.594 76.4267 175.502 76.4267C175.318 76.4153 173.581 74.9653 173.409 74.6685C173.34 74.5429 173.19 74.3488 173.087 74.2347C172.972 74.1205 172.88 73.9264 172.88 73.8008C172.88 73.6638 172.776 73.367 172.65 73.1158C172.523 72.8647 172.362 72.3966 172.293 72.0655C172.224 71.7344 172.121 71.3234 172.052 71.1408C171.96 70.9124 171.971 70.7868 172.075 70.6613C172.19 70.5243 172.19 70.4443 172.098 70.353C171.925 70.1818 171.914 69.7251 172.075 69.6338C172.144 69.5881 172.029 69.4054 171.822 69.1999C171.178 68.5606 170.764 68.0354 170.787 67.887C170.833 67.7043 170.683 67.7158 170.373 67.9327C170.189 68.0583 169.982 68.0925 169.717 68.0468C169.315 67.9669 168.28 68.3437 168.28 68.5606C168.28 68.6177 168.188 68.6633 168.061 68.6633C167.946 68.6633 167.716 68.7661 167.555 68.8917C167.394 69.0173 167.21 69.12 167.141 69.12C167.084 69.12 166.98 69.1885 166.934 69.2684C166.819 69.4511 164.243 70.7183 163.99 70.7183C163.887 70.7183 163.783 70.764 163.737 70.8211C163.703 70.8782 163.507 70.9695 163.3 71.0038C163.105 71.0494 162.783 71.1522 162.587 71.2321C161.897 71.5289 159.758 71.6545 158.045 71.4947C157.447 71.4376 156.906 71.3348 156.849 71.2778C156.78 71.2207 156.607 71.175 156.458 71.175C156.308 71.175 156.044 71.0837 155.883 70.9695C155.71 70.8553 155.365 70.6613 155.112 70.5471C154.572 70.3073 153.79 69.7137 153.192 69.0858C152.962 68.846 152.709 68.6748 152.651 68.7204C152.582 68.7547 152.467 68.6519 152.41 68.4693C152.341 68.298 152.214 68.0925 152.145 68.0354C151.938 67.8756 151.294 66.9052 151.214 66.6312C151.168 66.5056 151.064 66.38 150.984 66.3458C150.903 66.3115 150.719 65.9918 150.581 65.6151C150.432 65.2498 150.282 64.873 150.225 64.7703C150.167 64.6675 150.087 64.3821 150.052 64.1423C150.006 63.8912 149.903 63.5943 149.822 63.4688C149.753 63.3432 149.65 63.0121 149.604 62.7381C149.523 62.2472 149.535 62.2243 150.248 61.4594C150.65 61.037 151.133 60.489 151.329 60.2607C151.605 59.9296 151.731 59.8611 151.927 59.9182C152.065 59.9638 152.18 60.078 152.18 60.1579C152.18 60.2493 152.272 60.3748 152.387 60.4319C152.594 60.5461 152.651 60.9228 152.49 61.0827C152.341 61.2425 152.41 61.4708 152.617 61.4708C152.766 61.4708 152.812 61.5736 152.835 61.9389C152.847 62.2129 152.95 62.544 153.088 62.7381C153.226 62.9093 153.33 63.1148 153.33 63.1833C153.33 63.2975 153.468 63.5829 153.698 63.9825C154.089 64.6561 154.215 64.8388 154.411 64.9986C154.526 65.1013 154.733 65.284 154.871 65.4096C155.009 65.5352 155.135 65.6379 155.17 65.6379C155.319 65.6493 155.825 65.9918 156.032 66.2202C156.32 66.5398 157.573 67.202 157.723 67.1107C157.78 67.0764 157.918 67.1221 158.022 67.2134C158.137 67.3048 158.574 67.4189 159.022 67.4646C159.471 67.5103 159.942 67.613 160.069 67.7043C160.207 67.7843 160.356 67.8185 160.402 67.7728C160.448 67.7272 160.793 67.6929 161.184 67.6815C162.53 67.6701 163.611 67.5103 164.025 67.2705C164.243 67.1449 164.623 67.0422 164.853 67.0422C165.094 67.0536 165.313 66.9965 165.347 66.9394C165.393 66.8823 165.462 66.8595 165.52 66.8938C165.566 66.928 165.646 66.8709 165.681 66.7682C165.715 66.6654 165.819 66.6083 165.911 66.6426C166.003 66.6768 166.164 66.6083 166.279 66.4828C166.382 66.3686 166.624 66.2658 166.808 66.2658C167.015 66.2658 167.13 66.2088 167.13 66.0946C167.13 65.9918 167.245 65.9233 167.429 65.9233C167.59 65.9233 167.877 65.7749 168.084 65.5808C168.291 65.3982 168.544 65.2383 168.659 65.2383C168.786 65.2383 168.901 65.1356 168.935 65.0214C168.993 64.7931 169.361 64.6104 169.855 64.5648C169.924 64.5648 170.028 64.4506 170.062 64.325C170.097 64.1994 170.2 64.0967 170.292 64.0967C170.373 64.0967 170.626 63.8912 170.844 63.64C171.063 63.3888 171.316 63.1833 171.408 63.1833C171.626 63.1833 172.42 62.2814 172.42 62.0188C172.42 61.8704 172.512 61.8133 172.707 61.8133C172.868 61.8133 173.029 61.7334 173.064 61.6421C173.11 61.5508 173.225 61.4708 173.34 61.4708C173.57 61.4708 173.8 61.9846 173.8 62.4983C173.8 62.6696 173.88 62.8751 173.972 62.955C174.076 63.0463 174.122 63.1948 174.076 63.3203C174.041 63.4345 174.076 63.6172 174.156 63.7085C174.225 63.7998 174.26 63.9026 174.225 63.9368C174.168 63.9939 174.283 64.2793 174.858 65.5808C175.099 66.1403 175.329 66.5513 175.525 66.7796C175.64 66.9052 175.766 67.1221 175.801 67.2591C175.847 67.3961 176.192 67.8185 176.56 68.2067C176.939 68.5948 177.25 68.9602 177.25 69.0173C177.25 69.0743 177.342 69.1657 177.457 69.1999C177.56 69.2456 177.744 69.394 177.859 69.5424C177.974 69.6908 178.124 69.805 178.193 69.805C178.365 69.805 179.469 70.5014 179.573 70.6727C179.63 70.7526 179.768 70.7868 179.895 70.7526C180.033 70.7183 180.228 70.7754 180.355 70.8896C180.481 71.0038 180.677 71.0608 180.792 71.038C180.918 71.0038 181.114 71.0266 181.229 71.0951C181.344 71.1636 182.045 71.2321 182.793 71.2435C183.897 71.2663 184.15 71.2321 184.196 71.0951C184.242 70.9695 184.38 70.9353 184.633 70.9695C185.035 71.038 185.978 70.8668 186.185 70.6955C186.266 70.6384 186.381 70.6156 186.461 70.6613C186.553 70.7183 186.565 70.6498 186.507 70.3873C186.438 70.0562 186.599 69.8621 186.703 70.1703C186.737 70.2503 186.806 70.2617 186.91 70.2046C187.002 70.1475 187.197 70.0904 187.358 70.079C187.726 70.0333 188.232 69.6566 188.232 69.4283C188.232 69.1657 188.382 69.0743 188.554 69.2228C188.681 69.3141 188.796 69.3141 189.014 69.1999C189.417 68.9944 190.268 68.1039 190.187 67.9783C190.153 67.9213 190.176 67.8528 190.245 67.8071C190.302 67.7728 190.36 67.613 190.36 67.4532C190.36 67.2933 190.44 67.1449 190.532 67.1107C190.647 67.065 190.682 66.9623 190.647 66.8253C190.601 66.6997 190.624 66.6083 190.693 66.6083C190.877 66.6083 190.843 66.1288 190.647 65.8777C190.532 65.7293 190.406 65.6836 190.187 65.7407C189.969 65.7978 189.9 65.7749 189.957 65.6836C190.003 65.6151 189.98 65.5123 189.9 65.4667C189.773 65.3868 189.785 65.3068 189.946 65.0785C190.21 64.6789 190.084 64.5077 189.681 64.7246C189.509 64.8045 189.256 64.8616 189.141 64.8273C188.807 64.736 187.818 65.2383 186.841 65.9804C186.599 66.1631 186.208 66.4143 185.99 66.5398C185.771 66.654 185.369 66.8709 185.093 67.0193C184.828 67.1678 184.472 67.2933 184.311 67.2933C184.15 67.2933 183.862 67.3733 183.655 67.476C183.368 67.6244 183.092 67.6587 182.298 67.6016C181.746 67.5673 181.206 67.4874 181.091 67.4303C180.067 66.9166 179.814 66.7796 179.619 66.6768C179.297 66.4942 178.86 66.0832 178.86 65.9576C178.86 65.9005 178.71 65.7407 178.515 65.6037C178.331 65.4553 178.17 65.2954 178.17 65.2269C178.17 65.1584 177.963 64.8159 177.71 64.4506C177.457 64.0967 177.25 63.7313 177.25 63.6514C177.25 63.5144 176.859 62.5098 176.663 62.133C176.606 62.0188 176.56 61.8248 176.56 61.6878C176.56 61.4594 176.387 60.7402 176.238 60.3292C176.203 60.2378 176.157 59.9638 176.146 59.7241C176.111 59.3245 175.513 58.2742 175.318 58.2742C175.272 58.2742 175.168 58.3769 175.088 58.5025C174.915 58.7765 174.317 58.8108 174.214 58.5596C174.179 58.4568 174.007 58.3883 173.8 58.3883C173.57 58.3883 173.42 58.3198 173.374 58.1828C173.328 58.0801 173.248 57.9545 173.179 57.8974C173.098 57.8403 173.144 57.7376 173.328 57.5778C173.547 57.3951 173.581 57.3266 173.466 57.2124C173.351 57.1097 173.294 57.1211 173.167 57.2923C173.075 57.4065 172.949 57.4636 172.88 57.4179C172.811 57.3723 172.627 57.4293 172.477 57.5207C172.316 57.6234 172.19 57.6691 172.19 57.6348C172.19 57.5892 172.098 57.6234 171.994 57.7148C171.879 57.8061 171.603 57.9773 171.385 58.0915C170.879 58.3655 170.281 58.9363 170.384 59.0277C170.453 59.0962 170.269 59.2446 169.798 59.4843C169.694 59.53 169.51 59.393 169.28 59.119C168.912 58.6852 167.659 57.4179 167.118 56.9498C166.969 56.8243 166.727 56.5845 166.601 56.4361C166.463 56.2877 166.164 56.0023 165.934 55.8196C165.704 55.6255 165.175 55.1688 164.761 54.7921C164.347 54.4153 163.944 54.0843 163.875 54.0614C163.795 54.0386 163.668 53.9358 163.576 53.8559C163.484 53.7646 163.128 53.4792 162.771 53.2166C162.415 52.9654 162.081 52.6914 162.035 52.6001C161.989 52.5202 161.874 52.4517 161.782 52.4517C161.702 52.4517 161.61 52.406 161.587 52.3603C161.575 52.3033 161.265 52.0978 160.92 51.9037C159.977 51.3557 159.827 51.2643 159.77 51.1844C159.735 51.1388 159.551 51.0132 159.344 50.899C159.149 50.7734 158.62 50.4652 158.194 50.1912C157.757 49.9286 157.309 49.7117 157.205 49.7117C157.102 49.7117 157.01 49.6774 157.01 49.6203C157.01 49.5747 156.837 49.4719 156.642 49.3806C156.435 49.3007 155.745 48.981 155.112 48.6728C154.48 48.3759 153.824 48.0905 153.64 48.0448C153.468 48.0106 153.307 47.9307 153.272 47.885C153.238 47.8279 152.916 47.7023 152.548 47.5996C152.191 47.4968 151.789 47.3713 151.662 47.3142C151.536 47.2685 151.145 47.1201 150.8 46.9831C150.443 46.8575 150.029 46.7433 149.857 46.7433C149.684 46.7433 149.512 46.6863 149.477 46.6292C149.443 46.5607 149.293 46.515 149.155 46.515C149.017 46.515 148.684 46.4351 148.419 46.3438C147.89 46.1611 146.361 45.8186 145.797 45.7501C145.613 45.7387 144.912 45.6359 144.245 45.5446C143.578 45.4418 142.784 45.3733 142.474 45.3733C142.163 45.3733 141.841 45.3163 141.772 45.2592C141.634 45.145 136.781 45.1793 135.85 45.2934C135.562 45.3391 134.665 45.419 133.837 45.4989C133.021 45.5674 132.296 45.6588 132.227 45.7044C132.17 45.7501 131.733 45.8643 131.273 45.9442C130.813 46.0241 130.41 46.1383 130.376 46.1953C130.341 46.241 130.146 46.2867 129.927 46.2867C129.709 46.2867 129.502 46.3323 129.467 46.4008C129.433 46.4579 129.26 46.515 129.088 46.515C128.697 46.5264 127.823 46.7548 127.489 46.9488C127.351 47.0173 127.144 47.0858 127.029 47.0858C126.903 47.0858 126.535 47.2114 126.213 47.3713C125.879 47.5311 125.523 47.6567 125.408 47.6567C125.293 47.6567 124.879 47.8051 124.488 47.9992C124.097 48.1818 123.694 48.3417 123.602 48.3417C123.51 48.3417 123.43 48.3873 123.43 48.433C123.43 48.5586 122.912 48.7983 122.636 48.7983C122.521 48.7983 122.349 48.8897 122.234 49.0038C122.13 49.1294 121.843 49.2893 121.59 49.3692C121.337 49.4491 121.049 49.6089 120.946 49.7345C120.831 49.8487 120.681 49.94 120.601 49.94C120.509 49.94 120.152 50.1341 119.796 50.3624C119.451 50.6022 118.991 50.8876 118.795 50.9903C118.6 51.1045 118.393 51.2643 118.347 51.3671C118.289 51.4584 118.151 51.5383 118.036 51.5383C117.921 51.5383 117.737 51.6411 117.622 51.7667C117.507 51.8923 117.369 51.995 117.312 51.995C117.208 51.995 116.139 52.8056 115.621 53.2851C115.472 53.4221 115.23 53.6162 115.081 53.7189C114.678 53.9701 113.62 55.0204 112.505 56.2192C111.964 56.8014 111.424 57.3951 111.297 57.5321C110.975 57.8746 109.86 59.4843 109.86 59.6213C109.86 59.6784 109.756 59.8154 109.63 59.9296C109.503 60.0438 109.4 60.2264 109.4 60.352C109.4 60.4662 109.342 60.6717 109.262 60.8201C108.986 61.3453 108.94 61.4708 108.94 61.6307C108.94 61.7791 108.721 62.27 108.296 63.0692C108.215 63.229 108.043 63.366 107.916 63.3888C107.652 63.4345 107.583 63.2404 107.514 62.3157C107.491 61.9846 107.456 61.6763 107.433 61.6307C107.399 61.5736 107.399 61.037 107.41 60.4433C107.422 59.8497 107.433 59.1989 107.422 59.0163C107.422 58.8222 107.422 58.5938 107.422 58.5025C107.433 58.4112 107.468 57.5892 107.502 56.6758C107.537 55.7625 107.617 54.8948 107.663 54.735C107.721 54.5752 107.824 54.1413 107.905 53.7646C107.974 53.3878 108.077 52.9198 108.146 52.7257C108.204 52.5316 108.25 52.2918 108.25 52.1891C108.25 52.0863 108.284 51.995 108.342 51.995C108.434 51.995 108.71 50.9333 108.71 50.5451C108.71 50.4195 108.79 50.2483 108.882 50.1683C108.974 50.0884 109.078 49.8487 109.124 49.6089C109.17 49.3806 109.296 49.0609 109.411 48.8897C109.538 48.7298 109.63 48.5472 109.63 48.4901C109.63 48.433 109.779 48.159 109.952 47.8736C110.136 47.5996 110.32 47.2228 110.366 47.0516C110.4 46.8803 110.492 46.7433 110.55 46.7433C110.619 46.7433 110.86 46.4465 111.09 46.0812C111.32 45.7273 111.654 45.2478 111.838 45.0308C112.367 44.3915 112.39 44.3573 112.39 44.2773C112.39 44.2317 112.597 43.9348 112.861 43.638C113.114 43.3298 113.344 43.0101 113.356 42.9302C113.367 42.8503 113.448 42.6904 113.54 42.5877C113.632 42.4849 113.839 42.2452 114 42.0511C114.598 41.3318 116.518 39.5394 117.128 39.1284C117.358 38.9686 117.634 38.7174 117.737 38.569C117.829 38.4206 117.99 38.295 118.094 38.295C118.186 38.295 118.577 38.0781 118.968 37.8041C119.347 37.5415 119.819 37.2218 120.026 37.0963C120.221 36.9821 120.451 36.788 120.532 36.6738C120.612 36.5597 120.808 36.4683 120.946 36.4683C121.095 36.4683 121.279 36.3884 121.36 36.2971C121.44 36.1943 121.682 36.0345 121.889 35.9432C122.107 35.8404 122.28 35.7148 122.28 35.6578C122.28 35.6007 122.349 35.555 122.429 35.555C122.51 35.555 122.751 35.4066 122.97 35.2125C123.188 35.0298 123.464 34.8814 123.579 34.87C123.798 34.87 126.075 32.7008 126.075 32.4953C126.075 32.4154 125.937 32.3469 125.764 32.3469C125.063 32.3013 124.154 32.3013 123.832 32.3355ZM106.318 69.0515C106.364 69.12 106.41 69.3826 106.41 69.6223C106.41 70.0333 106.525 70.5357 106.766 71.1179C106.812 71.2435 106.893 71.5746 106.927 71.86C107.042 72.6249 107.318 73.6068 107.445 73.7323C107.502 73.7894 107.56 73.9607 107.56 74.1091C107.56 74.2575 107.617 74.3717 107.686 74.3717C107.755 74.3717 107.778 74.4516 107.744 74.5658C107.698 74.6685 107.801 74.9882 107.962 75.2964C108.123 75.6047 108.25 76.0271 108.25 76.244C108.25 76.4495 108.319 76.6893 108.411 76.7578C108.503 76.8263 108.687 77.203 108.825 77.5798C108.974 77.9451 109.135 78.2876 109.181 78.3218C109.239 78.3561 109.285 78.4703 109.285 78.5844C109.285 78.6872 109.411 78.9498 109.572 79.1667C109.733 79.3836 109.86 79.6348 109.86 79.7375C109.86 79.8403 109.963 80.0229 110.09 80.1371C110.216 80.2513 110.32 80.4453 110.32 80.5595C110.32 80.6851 110.423 80.9134 110.55 81.0733C110.676 81.2331 110.78 81.4957 110.78 81.6441C110.78 81.8039 110.883 82.0551 111.01 82.2149C111.136 82.3748 111.24 82.6031 111.24 82.7173C111.24 82.8314 111.297 82.957 111.355 82.9913C111.424 83.0255 111.47 83.1397 111.47 83.2424C111.47 83.3338 111.631 83.5963 111.815 83.8133C112.01 84.0188 112.16 84.2928 112.16 84.4069C112.16 84.5211 112.24 84.6809 112.332 84.7608C112.424 84.8408 112.608 85.1148 112.723 85.3773C112.838 85.6399 113.114 86.1194 113.356 86.4391C113.586 86.7588 113.77 87.067 113.77 87.1469C113.77 87.2953 114.529 88.4827 114.69 88.5854C114.747 88.6197 114.885 88.848 114.989 89.0763C115.104 89.3047 115.265 89.5901 115.357 89.7043C115.46 89.807 115.587 90.0125 115.656 90.1609C115.736 90.2979 115.897 90.4121 116.012 90.4121C116.185 90.4121 116.254 90.5148 116.3 90.8117C116.346 91.0971 116.438 91.2455 116.679 91.3597C116.852 91.4396 116.99 91.5994 116.99 91.7136C116.99 91.9305 117.185 92.1588 117.887 92.7411C118.14 92.958 118.381 93.2548 118.427 93.4147C118.462 93.5631 118.864 94.0768 119.324 94.5449C120.394 95.6638 120.52 95.7893 121.302 96.4629C121.67 96.7712 122.119 97.1708 122.303 97.342C122.487 97.5247 122.705 97.6617 122.797 97.6617C122.878 97.6617 122.993 97.7644 123.027 97.89C123.062 98.0156 123.211 98.1754 123.338 98.2439C123.476 98.3124 123.706 98.5179 123.867 98.7006C124.016 98.8833 124.212 99.0317 124.292 99.0317C124.373 99.0317 124.603 99.1801 124.81 99.3742C125.017 99.5568 125.281 99.7167 125.396 99.7167C125.534 99.7167 125.615 99.7966 125.615 99.9222C125.615 100.196 125.833 100.402 126.144 100.402C126.282 100.402 126.42 100.482 126.466 100.573C126.5 100.664 126.604 100.744 126.707 100.744C126.799 100.744 126.88 100.79 126.88 100.847C126.88 100.904 126.995 100.973 127.144 101.018C127.282 101.052 127.57 101.235 127.788 101.441C128.007 101.635 128.421 101.897 128.708 102.023C128.996 102.137 129.318 102.343 129.421 102.468C129.525 102.605 129.743 102.719 129.939 102.719C130.123 102.731 130.376 102.856 130.514 103.005C130.64 103.142 130.997 103.393 131.319 103.564C131.629 103.724 132.032 103.964 132.227 104.101L132.561 104.329L132.17 104.42C131.779 104.512 131.468 104.535 129.352 104.672C128.789 104.706 128.087 104.774 127.8 104.809C127.512 104.843 127.041 104.888 126.753 104.911C126.466 104.946 126.086 105.014 125.914 105.083C125.741 105.14 125.477 105.197 125.316 105.197C125.166 105.197 124.948 105.242 124.833 105.299C124.729 105.357 124.35 105.459 124.005 105.539C123.027 105.745 121.797 106.11 121.44 106.293C121.256 106.384 121.061 106.453 120.992 106.453C120.934 106.453 120.716 106.521 120.52 106.612C120.313 106.692 119.968 106.829 119.75 106.909C119.531 107.001 119.267 107.126 119.175 107.206C119.083 107.286 118.864 107.389 118.68 107.423C118.312 107.514 118.094 107.845 118.197 108.165C118.324 108.553 118.841 109.078 119.094 109.078C119.382 109.078 120.037 108.884 120.474 108.667C120.658 108.576 120.911 108.508 121.049 108.508C121.187 108.508 121.452 108.428 121.636 108.336C121.808 108.245 122.061 108.165 122.176 108.165C122.291 108.165 122.682 108.085 123.05 107.982C125.983 107.183 130.192 106.704 134.815 106.624C136.908 106.59 137.161 106.635 138.414 107.297C138.84 107.526 139.277 107.754 139.392 107.811C139.955 108.108 140.484 108.291 140.622 108.234C140.714 108.199 140.829 108.245 140.875 108.325C141.036 108.587 141.565 108.861 141.761 108.782C141.887 108.736 142.014 108.793 142.129 108.941C142.221 109.067 142.462 109.204 142.669 109.25C143.175 109.352 144.429 109.752 145.015 110.003C145.291 110.129 145.59 110.22 145.682 110.22C145.774 110.22 146.073 110.311 146.349 110.437C146.89 110.677 147.89 110.905 148.385 110.905C148.557 110.905 148.764 110.974 148.833 111.065C148.914 111.156 149.305 111.259 149.799 111.305C150.627 111.373 151.179 111.522 151.467 111.75C151.651 111.887 152.651 111.853 152.801 111.693C152.962 111.544 155.25 111.556 155.342 111.704C155.388 111.784 155.894 111.796 156.757 111.761C157.493 111.716 158.206 111.693 158.332 111.693C158.792 111.716 159.62 111.693 160.345 111.659C162.668 111.544 162.645 111.533 162.829 111.796C162.921 111.933 163.128 112.047 163.277 112.047C163.438 112.047 163.611 112.149 163.68 112.275C163.749 112.401 163.864 112.503 163.944 112.503C164.025 112.515 164.186 112.64 164.312 112.8C164.439 112.96 164.611 113.154 164.703 113.223C164.784 113.303 164.968 113.485 165.106 113.622C165.232 113.771 165.543 114.09 165.784 114.33C166.014 114.57 166.21 114.832 166.21 114.901C166.21 114.981 166.451 115.346 166.739 115.723C167.026 116.111 167.279 116.522 167.302 116.659C167.348 117.059 167.486 117.298 167.659 117.298C167.762 117.298 167.82 117.424 167.82 117.607C167.82 117.778 167.912 118.12 168.038 118.372C168.337 119.034 168.544 120.472 168.521 121.797C168.51 122.424 168.475 122.972 168.441 123.03C168.291 123.269 168.176 124.422 168.291 124.502C168.383 124.548 168.383 124.639 168.291 124.788C168.004 125.301 167.705 126.101 167.762 126.203C167.854 126.34 167.371 127.493 167.176 127.608C167.084 127.653 167.015 127.825 167.015 127.973C167.015 128.133 166.969 128.258 166.9 128.258C166.842 128.258 166.785 128.384 166.785 128.532C166.785 128.692 166.67 128.875 166.497 128.989C166.336 129.092 166.21 129.252 166.21 129.343C166.21 129.434 166.141 129.548 166.072 129.594C165.991 129.64 165.727 129.971 165.497 130.313C165.267 130.656 164.749 131.238 164.347 131.615C163.944 131.98 163.542 132.403 163.45 132.562C163.358 132.722 163.047 132.973 162.771 133.122C162.495 133.259 162.127 133.521 161.955 133.681C161.794 133.841 161.575 133.967 161.483 133.967C161.391 133.967 161.196 134.115 161.058 134.309C160.908 134.492 160.724 134.652 160.632 134.652C160.54 134.652 160.46 134.686 160.46 134.743C160.46 134.789 160.264 134.926 160.034 135.051C159.08 135.542 158.723 135.805 158.758 135.999C158.781 136.147 158.712 136.193 158.39 136.193C158.171 136.193 157.803 136.296 157.585 136.433C157.366 136.558 156.895 136.809 156.538 136.981C156.182 137.152 155.768 137.415 155.618 137.574C155.48 137.723 155.239 137.848 155.101 137.848C154.951 137.848 154.802 137.905 154.767 137.974C154.721 138.031 154.56 138.077 154.399 138.054C154.146 138.02 154.089 138.088 153.836 138.819C153.686 139.253 153.56 139.732 153.56 139.869C153.56 140.109 153.307 140.897 153.111 141.273C153.054 141.376 152.973 141.627 152.927 141.844C152.893 142.061 152.755 142.506 152.64 142.815C152.525 143.134 152.398 143.694 152.352 144.07C152.295 144.527 152.18 144.847 152.019 145.041C151.869 145.201 151.685 145.555 151.605 145.84C151.524 146.125 151.409 146.399 151.352 146.457C151.306 146.525 151.26 146.753 151.26 146.982C151.26 147.256 151.191 147.427 151.03 147.53C150.903 147.61 150.8 147.758 150.8 147.884C150.8 147.998 150.696 148.203 150.57 148.352C150.443 148.5 150.34 148.706 150.34 148.82C150.34 148.923 150.282 149.037 150.225 149.06C150.156 149.082 150.075 149.299 150.041 149.55C149.995 149.802 149.88 150.076 149.776 150.167C149.638 150.281 149.627 150.338 149.742 150.372C149.949 150.452 149.914 150.749 149.684 150.829C149.42 150.932 149.19 151.16 149.19 151.32C149.19 151.389 149.04 151.674 148.845 151.948C148.661 152.222 148.5 152.485 148.5 152.53C148.5 152.576 148.35 152.861 148.155 153.17C147.971 153.466 147.81 153.809 147.81 153.923C147.81 154.037 147.683 154.254 147.511 154.403C147.304 154.608 147.246 154.756 147.292 154.939C147.338 155.133 147.304 155.202 147.177 155.202C147.074 155.202 146.959 155.293 146.924 155.396C146.878 155.51 146.775 155.658 146.694 155.715C146.533 155.83 146.349 156.126 146.062 156.686C145.981 156.846 145.728 157.211 145.487 157.496C145.245 157.793 145.05 158.09 145.05 158.159C145.05 158.216 144.958 158.33 144.843 158.387C144.728 158.444 144.555 158.707 144.475 158.969C144.371 159.277 144.21 159.494 143.992 159.609C143.819 159.7 143.67 159.871 143.67 159.985C143.67 160.099 143.589 160.225 143.497 160.271C143.405 160.305 143.325 160.431 143.325 160.556C143.325 160.956 143.187 161.138 142.911 161.138C142.704 161.138 142.554 161.253 142.393 161.538C142.255 161.766 142.048 161.995 141.933 162.063C141.807 162.12 141.715 162.28 141.715 162.394C141.715 162.52 141.634 162.623 141.542 162.623C141.45 162.623 141.289 162.748 141.174 162.908C140.829 163.387 139.898 164.335 139.783 164.335C139.725 164.335 139.599 164.449 139.495 164.598C139.3 164.906 138.506 165.705 138.391 165.705C138.357 165.705 138.035 165.968 137.69 166.299C137.345 166.618 136.942 166.949 136.804 167.052C136.655 167.144 136.54 167.326 136.54 167.475C136.54 167.669 136.471 167.726 136.241 167.726C136.08 167.726 135.815 167.863 135.643 168.023C135.47 168.171 135.148 168.399 134.93 168.502C134.711 168.616 134.458 168.799 134.378 168.913C134.297 169.039 134.159 169.13 134.079 169.13C133.998 169.13 133.837 169.221 133.711 169.336C133.596 169.438 133.343 169.61 133.147 169.701C132.963 169.792 132.549 170.066 132.227 170.295C131.917 170.534 131.595 170.728 131.514 170.728C131.445 170.728 131.238 170.854 131.054 171.002C130.882 171.151 130.606 171.311 130.445 171.356C129.95 171.493 129.18 171.881 129.18 171.996C129.18 172.053 129.111 172.098 129.03 172.098C128.938 172.098 128.72 172.167 128.536 172.258C128.352 172.35 127.995 172.509 127.742 172.624C127.489 172.738 127.213 172.92 127.133 173.035C127.018 173.183 126.937 173.206 126.788 173.114C126.638 173.023 126.454 173.057 126.052 173.24C125.753 173.366 125.477 173.525 125.442 173.583C125.408 173.64 125.304 173.662 125.212 173.628C125.12 173.594 124.936 173.64 124.787 173.742C124.649 173.845 124.407 173.925 124.269 173.925C124.12 173.925 123.786 174.028 123.51 174.142C123.246 174.268 122.901 174.37 122.74 174.37C122.579 174.37 122.015 174.45 121.475 174.553C120.934 174.644 120.279 174.758 120.014 174.804C119.738 174.838 119.52 174.918 119.52 174.975C119.52 175.021 119.163 175.055 118.715 175.021C118.278 174.998 117.91 175.01 117.91 175.067C117.91 175.112 117.036 175.158 115.955 175.158C114.885 175.158 113.954 175.204 113.885 175.238C113.816 175.284 113.666 175.284 113.563 175.238C113.229 175.09 112.815 175.032 112.286 175.055C112.01 175.067 111.723 175.021 111.654 174.964C111.585 174.907 111.194 174.838 110.78 174.804C109.503 174.69 108.767 174.587 108.652 174.496C108.595 174.45 108.181 174.347 107.732 174.279C106.996 174.153 106.697 174.073 106.007 173.811C105.881 173.765 105.524 173.662 105.202 173.594C104.708 173.468 103.558 173 102.937 172.658C102.822 172.601 102.626 172.555 102.511 172.555C102.385 172.555 102.247 172.498 102.212 172.441C102.178 172.372 102.04 172.327 101.913 172.327C101.787 172.327 101.58 172.224 101.442 172.098C101.304 171.973 101.12 171.87 101.039 171.87C100.959 171.87 100.648 171.71 100.349 171.528C100.05 171.333 99.7055 171.185 99.5675 171.185C99.441 171.185 99.2685 171.082 99.188 170.957C99.1075 170.831 98.981 170.728 98.9005 170.728C98.8085 170.728 98.544 170.58 98.291 170.386C98.0495 170.203 97.7045 170.043 97.532 170.043C97.325 170.043 97.21 169.986 97.21 169.872C97.21 169.769 97.118 169.667 97.0145 169.621C96.8995 169.587 96.6695 169.427 96.497 169.267C96.3245 169.119 96.083 168.925 95.9565 168.856C95.531 168.616 94.2775 167.726 94.1625 167.577C94.105 167.486 93.8635 167.292 93.645 167.132C93.2425 166.847 91.8165 165.579 91.2415 165.009C90.2525 164.027 87.964 161.572 87.665 161.161C87.458 160.899 87.251 160.682 87.1935 160.682C87.136 160.682 87.09 160.636 87.09 160.579C87.09 160.385 86.239 159.312 86.0895 159.312C86.009 159.312 85.94 159.232 85.94 159.14C85.94 159.049 85.8365 158.866 85.7215 158.752C85.6065 158.638 85.4685 158.433 85.4225 158.296C85.388 158.17 85.227 157.965 85.066 157.839C84.9165 157.725 84.79 157.542 84.79 157.451C84.79 157.348 84.6405 157.131 84.468 156.948C84.2955 156.777 84.008 156.332 83.824 155.967C83.6515 155.601 83.3755 155.167 83.226 155.008C83.0765 154.848 82.95 154.619 82.95 154.517C82.95 154.403 82.8695 154.254 82.766 154.163C82.6625 154.083 82.5015 153.82 82.4095 153.581C82.3175 153.341 82.0875 153.021 81.9035 152.873C81.7195 152.713 81.57 152.485 81.57 152.359C81.57 152.222 81.524 152.028 81.4665 151.914C81.409 151.811 81.2595 151.491 81.11 151.206C80.972 150.92 80.765 150.509 80.65 150.293C80.535 150.076 80.2705 149.528 80.075 149.094C79.8795 148.649 79.523 147.895 79.27 147.416C79.017 146.936 78.81 146.434 78.81 146.32C78.81 146.205 78.6835 145.863 78.534 145.543C78.3845 145.235 78.166 144.653 78.0625 144.265C77.9475 143.865 77.7865 143.511 77.7175 143.488C77.637 143.454 77.6025 143.306 77.637 143.157C77.66 142.997 77.5795 142.7 77.4415 142.472C77.315 142.244 77.2 141.947 77.2 141.821C77.2 141.684 77.108 141.285 76.9815 140.942C76.8665 140.588 76.6825 139.995 76.579 139.618C76.4755 139.241 76.3145 138.67 76.2225 138.351C76.1305 138.031 76.05 137.666 76.05 137.552C76.05 137.426 76.004 137.278 75.935 137.209C75.8775 137.152 75.7625 136.695 75.6935 136.193C75.6245 135.691 75.521 135.177 75.4635 135.051C75.4175 134.926 75.268 134.127 75.13 133.282C75.0035 132.437 74.854 131.558 74.7965 131.341C74.6125 130.667 74.44 129.274 74.4285 128.43C74.417 127.984 74.371 127.551 74.325 127.459C74.1985 127.231 74.049 124.24 74.072 122.265C74.095 118.737 74.2215 114.387 74.3135 114.284C74.371 114.216 74.44 113.725 74.486 113.188C74.6355 111.065 74.693 110.608 74.7965 110.22C74.854 110.003 74.9 109.661 74.9 109.455C74.9 109.261 74.9575 109.056 75.015 109.021C75.084 108.987 75.13 108.782 75.13 108.576C75.13 108.371 75.2565 107.64 75.406 106.955C75.5555 106.27 75.7165 105.471 75.7625 105.174C75.797 104.877 75.8775 104.603 75.9465 104.569C76.004 104.523 76.05 104.352 76.05 104.169C76.05 103.987 76.096 103.815 76.165 103.77C76.2225 103.735 76.2455 103.633 76.211 103.553C76.1535 103.404 76.4525 102.377 76.993 100.858C77.1195 100.516 77.338 99.8194 77.4645 99.3057C77.6025 98.8033 77.8095 98.2553 77.9245 98.0841C78.028 97.9243 78.12 97.7188 78.12 97.6388C78.12 97.4448 78.3615 96.7826 78.6145 96.3031C78.718 96.0862 78.81 95.8578 78.81 95.7893C78.81 95.7208 78.948 95.3783 79.109 95.0358C79.2815 94.6933 79.454 94.3052 79.5 94.1796C79.5575 94.054 79.73 93.6544 79.9025 93.2891C80.075 92.9238 80.2245 92.5698 80.236 92.4899C80.2475 92.41 80.3395 92.2273 80.4545 92.0675C80.558 91.9191 80.65 91.7022 80.65 91.6108C80.65 91.5081 80.696 91.3825 80.7535 91.314C80.8455 91.2227 81.179 90.6062 82.168 88.7567C82.3635 88.4142 82.605 88.026 82.7315 87.889C82.8465 87.7634 82.95 87.5693 82.95 87.4666C82.95 87.3638 83.0075 87.2497 83.065 87.2154C83.134 87.1812 83.18 87.0784 83.18 86.9871C83.18 86.9072 83.341 86.6788 83.525 86.4733C83.7205 86.2678 83.87 86.0623 83.87 86.0053C83.87 85.8797 84.6405 84.6809 84.7785 84.5896C84.836 84.5553 84.9625 84.3841 85.0545 84.2128C85.572 83.231 85.825 82.8428 86.3655 82.2263C86.6875 81.8496 87.1015 81.3473 87.2625 81.1075C87.435 80.8563 87.8375 80.3883 88.1595 80.0343C88.493 79.6918 89.3555 78.7899 90.08 78.025C90.8045 77.2601 91.529 76.5637 91.69 76.4838C91.851 76.4038 92.173 76.1527 92.403 75.9243C92.633 75.696 92.886 75.5133 92.955 75.5133C93.024 75.5133 93.2195 75.3763 93.392 75.1937C93.806 74.7827 94.703 74.1433 94.8755 74.1433C94.956 74.1433 95.14 74.0292 95.2895 73.8808C95.876 73.3442 96.2095 73.1158 96.474 73.0473C96.6235 73.0131 96.75 72.9332 96.75 72.8761C96.75 72.819 96.819 72.7733 96.8995 72.7733C96.98 72.7733 97.256 72.6249 97.509 72.4308C97.7505 72.2482 98.015 72.0883 98.084 72.0883C98.1415 72.0883 98.3715 71.9628 98.59 71.8029C98.8085 71.6431 99.0615 71.5175 99.1765 71.5175C99.28 71.5175 99.7745 71.312 100.269 71.0494C100.775 70.7983 101.465 70.49 101.81 70.3758C102.155 70.2617 102.638 70.0562 102.868 69.9192C103.109 69.7822 103.351 69.7023 103.408 69.7365C103.466 69.7822 103.696 69.7137 103.926 69.5881C104.144 69.4625 104.501 69.3255 104.731 69.2913C104.949 69.2456 105.225 69.1428 105.329 69.0743C105.57 68.8917 106.203 68.8803 106.318 69.0515ZM70.4495 115.46C70.5415 115.529 70.76 115.552 70.967 115.517L71.3235 115.449L71.312 116.111C71.312 116.488 71.312 117.652 71.312 118.725C71.312 119.787 71.312 120.895 71.289 121.18C71.2775 121.465 71.3005 121.751 71.358 121.819C71.404 121.888 71.45 122.402 71.4615 122.961C71.473 123.52 71.5305 124.068 71.588 124.194C71.6685 124.331 71.657 124.445 71.5765 124.525C71.5075 124.594 71.496 124.696 71.565 124.776C71.6915 124.925 71.749 126.112 71.6455 126.283C71.5995 126.352 71.6225 126.683 71.6915 127.014C71.8065 127.63 71.8985 128.532 71.9445 129.8C71.956 130.176 72.0365 130.713 72.1285 130.998C72.2665 131.466 72.3125 131.763 72.416 132.939C72.4505 133.35 72.5655 133.887 72.6805 134.195C72.7265 134.286 72.761 134.595 72.784 134.88C72.7955 135.165 72.853 135.542 72.8875 135.736C72.9335 135.919 72.991 136.25 73.0255 136.456C73.06 136.661 73.129 136.855 73.1865 136.889C73.244 136.924 73.29 137.118 73.29 137.335C73.29 137.552 73.3475 137.757 73.405 137.791C73.474 137.826 73.52 138.02 73.52 138.214C73.52 138.59 73.635 138.579 72.37 138.316C71.404 138.122 71.059 137.985 69.38 137.106C69.0925 136.958 68.7705 136.832 68.667 136.832C68.552 136.821 68.46 136.775 68.46 136.73C68.46 136.672 68.138 136.387 67.7355 136.102C67.333 135.805 66.873 135.428 66.7005 135.257C66.5395 135.074 66.3325 134.88 66.252 134.812C66.1715 134.732 65.953 134.515 65.7805 134.321C65.5965 134.127 65.3665 133.967 65.263 133.967C65.148 133.967 64.9755 133.773 64.8605 133.521C64.7455 133.282 64.4925 132.894 64.2855 132.665C63.7105 132.037 63.4 131.603 63.4 131.455C63.4 131.375 63.2965 131.17 63.1585 130.987C62.779 130.462 62.25 129.366 62.25 129.115C62.25 128.978 62.1465 128.669 62.0085 128.43C61.882 128.178 61.744 127.745 61.7095 127.459C61.6865 127.174 61.583 126.831 61.491 126.683C61.399 126.534 61.33 126.283 61.353 126.112C61.3645 125.941 61.3415 125.164 61.284 124.377C61.215 123.189 61.2265 122.858 61.376 122.413C61.4795 122.128 61.583 121.637 61.5945 121.328C61.6175 121.032 61.721 120.621 61.8245 120.415C61.928 120.21 62.02 119.993 62.02 119.924C62.02 119.627 63.009 117.766 63.1815 117.721C63.2965 117.687 63.4 117.55 63.423 117.413C63.446 117.253 63.6185 117.07 63.8485 116.944C64.067 116.83 64.297 116.659 64.343 116.556C64.4005 116.465 64.55 116.385 64.665 116.385C64.7915 116.385 64.941 116.282 65.01 116.157C65.079 116.031 65.2285 115.928 65.332 115.928C65.447 115.928 65.5965 115.871 65.654 115.814C65.723 115.746 65.953 115.677 66.1715 115.654C66.39 115.632 66.643 115.597 66.735 115.552C67.402 115.3 67.747 115.255 68.943 115.289C69.7365 115.312 70.3575 115.38 70.4495 115.46ZM167.82 160.042C167.82 160.122 167.923 160.328 168.05 160.488C168.257 160.739 168.268 160.819 168.142 161.013C168.015 161.218 168.038 161.287 168.314 161.561C168.567 161.835 168.613 161.949 168.544 162.314C168.487 162.691 168.51 162.76 168.728 162.817C168.889 162.851 169.004 163.022 169.085 163.319C169.177 163.627 169.315 163.81 169.545 163.935C169.74 164.038 169.89 164.187 169.89 164.267C169.89 164.358 169.924 164.506 169.959 164.609C170.005 164.735 169.959 164.792 169.798 164.792C169.66 164.792 169.522 164.837 169.487 164.906C169.453 164.963 169.269 165.02 169.096 165.02C168.924 165.02 168.682 165.123 168.567 165.248C168.452 165.374 168.291 165.477 168.199 165.477C168.119 165.477 168.05 165.522 168.05 165.591C168.05 165.648 167.877 165.705 167.659 165.705C167.452 165.705 167.21 165.785 167.13 165.876C167.049 165.968 166.923 166.048 166.831 166.048C166.658 166.048 165.589 166.938 165.543 167.121C165.497 167.315 164.864 167.555 164.634 167.486C164.312 167.383 164.117 166.995 164.255 166.733C164.404 166.447 164.404 165.899 164.232 165.728C164.14 165.637 164.14 165.557 164.255 165.42C164.37 165.283 164.37 165.203 164.278 165.111C164.197 165.031 164.14 164.792 164.14 164.563C164.14 164.335 164.036 163.958 163.91 163.707C163.783 163.456 163.68 163.205 163.68 163.136C163.68 163.068 163.519 162.76 163.335 162.463C162.967 161.892 162.967 161.709 163.346 161.709C163.473 161.709 163.599 161.629 163.634 161.538C163.68 161.424 163.783 161.39 163.933 161.435C164.186 161.515 165.52 161.058 165.52 160.887C165.52 160.819 165.6 160.807 165.704 160.842C165.83 160.887 165.911 160.83 165.945 160.682C165.98 160.545 166.106 160.453 166.256 160.453C166.382 160.453 166.75 160.328 167.061 160.168C167.716 159.837 167.82 159.825 167.82 160.042ZM65.4125 161.709C65.447 161.766 65.7575 161.823 66.0795 161.823C66.551 161.823 66.7465 161.88 67.0225 162.109C67.379 162.417 68.1955 162.817 68.6785 162.919C69.2995 163.056 69.495 163.205 69.4145 163.524C69.38 163.684 69.2765 163.924 69.196 164.05C69.104 164.175 69.035 164.381 69.035 164.506C69.035 164.632 68.9545 164.837 68.8625 164.952C68.7705 165.077 68.69 165.351 68.69 165.557C68.69 165.762 68.644 166.025 68.5865 166.139C68.414 166.459 68.23 167.212 68.1725 167.76C68.1495 168.045 68.069 168.491 68 168.765C67.9425 169.027 67.885 169.393 67.885 169.564C67.885 169.735 67.8505 170.272 67.816 170.763C67.77 171.311 67.793 171.699 67.862 171.79C67.931 171.87 67.9655 172.27 67.9425 172.715C67.8965 173.628 68.0345 174.587 68.2875 175.09C68.3795 175.284 68.46 175.603 68.46 175.797C68.4715 176.368 68.667 177.042 68.851 177.145C68.9775 177.213 69.012 177.339 68.966 177.533C68.9315 177.681 68.943 177.875 69.012 177.955C69.0695 178.024 69.15 178.241 69.196 178.412C69.3685 179.12 70.3345 180.992 70.5645 181.049C70.737 181.095 70.7715 181.163 70.714 181.392C70.6565 181.62 70.7025 181.723 70.9325 181.871C71.0935 181.974 71.22 182.156 71.22 182.282C71.22 182.408 71.3235 182.533 71.45 182.567C71.5765 182.602 71.68 182.716 71.68 182.819C71.68 182.921 71.7145 183.115 71.749 183.252C71.795 183.424 71.772 183.515 71.6915 183.515C71.611 183.515 71.427 183.652 71.2775 183.835C71.1395 184.006 70.714 184.269 70.346 184.406C69.9665 184.554 69.5755 184.725 69.472 184.782C69.357 184.839 69.127 184.885 68.9545 184.885C68.782 184.885 68.5405 184.988 68.414 185.102C68.1265 185.365 67.54 185.307 67.54 185.011C67.54 184.908 67.2755 184.565 66.9535 184.257C66.3785 183.698 65.309 182.225 65.1135 181.711C65.056 181.574 64.964 181.46 64.895 181.46C64.8375 181.46 64.78 181.38 64.78 181.289C64.78 181.118 64.412 179.93 64.2165 179.462C64.09 179.177 63.837 178.183 63.791 177.807C63.768 177.647 63.699 177.316 63.6185 177.065C63.492 176.608 63.3425 175.626 63.216 174.325C63.1815 173.948 63.124 173.56 63.0895 173.468C62.9975 173.194 63.032 171.482 63.1585 169.872C63.331 167.692 63.4 167.178 63.515 166.949C63.584 166.835 63.63 166.573 63.63 166.344C63.63 166.127 63.676 165.922 63.7335 165.888C63.791 165.853 63.86 165.659 63.8945 165.454C64.067 164.449 64.113 164.301 64.642 163.159C64.849 162.737 65.01 162.212 65.01 161.995C65.01 161.606 65.24 161.435 65.4125 161.709Z" fill="black"/>
<path d="M91.184 105.071C91.161 105.105 90.6205 105.151 89.988 105.174C89.3555 105.185 88.562 105.277 88.217 105.379C87.8835 105.471 87.343 105.573 87.021 105.596C86.699 105.63 86.239 105.733 86.0205 105.825C85.7905 105.916 85.4455 105.996 85.2615 105.996C84.859 105.996 83.87 106.487 83.5135 106.863L83.2605 107.137L83.5825 107.731C84.1115 108.724 84.169 108.759 84.8935 108.667C85.25 108.622 85.6985 108.519 85.917 108.428C86.3885 108.233 87.205 108.051 87.8835 107.994C88.1595 107.971 88.47 107.914 88.5735 107.868C88.8265 107.754 89.5625 107.72 92.7365 107.674C94.22 107.651 95.508 107.594 95.5885 107.548C95.6575 107.503 95.7955 107.514 95.876 107.594C95.968 107.663 96.4395 107.743 96.9455 107.777C97.44 107.811 97.992 107.891 98.176 107.948C98.36 108.005 98.958 108.085 99.4985 108.131C100.039 108.165 100.602 108.279 100.74 108.359C100.901 108.473 101.12 108.496 101.338 108.45C101.534 108.416 101.787 108.439 101.936 108.507C102.327 108.724 103.351 108.542 103.765 108.199C103.96 108.051 104.11 107.834 104.11 107.731C104.098 107.4 102.442 106.441 102.166 106.612C102.109 106.647 101.982 106.601 101.89 106.51C101.787 106.418 101.637 106.338 101.534 106.338C101.442 106.338 101.327 106.281 101.292 106.224C101.258 106.156 101.074 106.11 100.878 106.11C100.694 106.11 100.453 106.064 100.338 106.007C100.004 105.825 98.5555 105.425 98.0725 105.368C97.8195 105.334 97.1985 105.288 96.6925 105.242C96.1865 105.197 95.7265 105.128 95.6575 105.082C95.4735 104.957 93.8635 104.968 93.622 105.094C93.484 105.174 93.346 105.174 93.2655 105.105C93.116 104.991 91.253 104.957 91.184 105.071Z" fill="black"/>
<path d="M139.415 112.161C139.323 112.218 139.104 112.275 138.92 112.275C138.598 112.275 137.621 112.675 137.506 112.857C137.471 112.914 137.356 112.96 137.253 112.96C136.873 112.96 135.424 113.942 134.539 114.81C134.033 115.3 133.584 115.7 133.55 115.7C133.504 115.7 133.389 115.609 133.285 115.495C132.998 115.175 131.48 114.456 130.617 114.239C129.605 113.965 127.731 114.01 126.42 114.319C126.132 114.387 125.741 114.467 125.546 114.49C124.867 114.57 123.522 115.106 122.51 115.7C122.418 115.757 122.188 115.871 121.992 115.963C121.337 116.271 121.072 116.442 120.325 117.036C119.06 118.029 118.37 119.102 118.37 120.038C118.37 120.666 118.485 120.803 119.14 120.906C119.52 120.963 119.658 120.929 119.83 120.758C119.957 120.632 120.141 120.506 120.244 120.461C120.348 120.427 120.44 120.29 120.44 120.164C120.44 119.924 120.992 119.353 121.877 118.691C122.544 118.189 124.258 117.298 124.557 117.298C124.672 117.298 124.81 117.253 124.867 117.196C125.189 116.922 127.765 116.396 128.03 116.556C128.087 116.591 128.271 116.556 128.444 116.499C128.651 116.419 128.869 116.419 129.111 116.499C129.306 116.556 129.628 116.613 129.812 116.625C130.226 116.648 131.836 117.401 132.4 117.846C132.618 118.018 132.952 118.326 133.147 118.543C134.504 120.05 134.918 120.586 135.275 121.26C135.493 121.694 135.712 122.059 135.746 122.093C135.781 122.128 135.884 122.276 135.953 122.413C136.068 122.63 136.16 122.664 136.402 122.607C136.655 122.55 136.965 122.356 138.403 121.386C138.575 121.271 138.748 121.18 138.794 121.18C138.955 121.18 140.289 119.993 140.898 119.296C141.818 118.235 142.106 117.881 142.439 117.298C142.968 116.362 143.405 114.33 143.129 114.056C143.072 114.01 142.957 113.782 142.865 113.542C142.635 112.994 141.841 112.275 141.439 112.275C141.278 112.275 141.14 112.218 141.14 112.161C141.14 112.012 139.645 112.012 139.415 112.161Z" fill="black"/>
<path d="M84.4795 113.143C83.87 113.405 83.3065 114.33 83.0765 115.415C82.973 115.871 83.0765 117.447 83.2375 117.983C83.2835 118.143 83.3525 118.451 83.3755 118.657C83.41 118.874 83.594 119.342 83.7665 119.684C83.9505 120.038 84.1 120.381 84.1 120.449C84.1 120.518 84.2035 120.666 84.33 120.78C84.4565 120.895 84.56 121.077 84.56 121.191C84.56 121.306 84.7095 121.568 84.882 121.774C85.066 121.979 85.388 122.402 85.595 122.698C86.032 123.304 86.929 124.011 87.55 124.228C87.7685 124.308 88.217 124.377 88.5275 124.377C89.091 124.377 89.114 124.365 89.367 123.886C89.505 123.623 89.62 123.372 89.62 123.338C89.62 123.292 89.827 122.915 90.08 122.504C90.333 122.093 90.54 121.694 90.54 121.625C90.54 121.557 90.701 121.317 90.885 121.1C91.0805 120.895 91.23 120.621 91.23 120.495C91.23 120.381 91.4025 120.118 91.6095 119.924C92.104 119.445 93.4955 118.543 93.8405 118.486C93.99 118.463 94.289 118.337 94.5075 118.212C94.7375 118.086 95.0595 117.983 95.232 117.983C95.416 117.983 95.6115 117.926 95.6805 117.858C95.738 117.801 96.2325 117.721 96.7615 117.687C97.2905 117.652 97.808 117.618 97.9 117.607C98.1875 117.572 99.7745 117.778 99.97 117.869C100.269 118.018 100.959 118.212 101.166 118.212C101.281 118.212 101.442 118.292 101.534 118.383C101.638 118.474 101.833 118.554 101.983 118.554C102.121 118.554 102.27 118.623 102.305 118.703C102.339 118.783 102.615 118.977 102.914 119.136C103.225 119.285 103.696 119.547 103.961 119.719C104.225 119.901 104.57 120.038 104.743 120.038C104.904 120.038 105.145 120.095 105.272 120.164C105.559 120.312 106.18 120.073 106.18 119.81C106.169 119.228 105.421 117.938 104.869 117.55C104.674 117.413 104.26 117.127 103.949 116.899C103.639 116.682 103.041 116.374 102.627 116.202C102.213 116.043 101.764 115.86 101.638 115.803C100.614 115.346 99.9355 115.232 98.1645 115.221C97.0835 115.209 96.0715 115.266 95.6575 115.346C94.9675 115.495 93.7945 115.848 93.438 116.031C93.3345 116.088 92.9895 116.248 92.679 116.396C91.644 116.899 91.391 117.047 91 117.413L90.609 117.778L90.3445 117.458C90.195 117.276 90.08 117.081 90.08 117.036C90.08 116.899 88.5735 114.924 87.941 114.239C87.642 113.919 87.3085 113.645 87.1935 113.645C87.0785 113.645 86.929 113.542 86.86 113.428C86.6415 113.017 85.1695 112.834 84.4795 113.143Z" fill="black"/>
<path d="M109.112 116.807C109.032 117.001 108.951 117.47 108.71 118.897C108.434 120.529 108.365 120.86 108.1 122.093C107.571 124.457 106.904 126.591 106.168 128.224C106.053 128.498 105.95 128.738 105.95 128.772C105.95 128.806 105.835 129.08 105.708 129.377C104.8 131.364 104.57 132.037 104.57 132.619C104.57 132.768 104.512 132.951 104.432 133.03C104.328 133.133 104.328 133.202 104.42 133.293C104.512 133.384 104.501 133.499 104.397 133.715C104.179 134.161 104.259 137.209 104.501 137.597C104.535 137.666 104.627 137.974 104.685 138.294C104.742 138.613 104.903 138.99 105.03 139.127C105.156 139.264 105.26 139.469 105.26 139.584C105.26 140.052 106.778 141.958 107.157 141.958C107.192 141.958 107.422 142.107 107.652 142.289C108.204 142.723 109.342 143.328 109.607 143.328C109.722 143.328 109.871 143.385 109.94 143.454C110.113 143.625 112.194 144.002 112.585 143.922C112.942 143.865 113.298 143.488 113.31 143.18C113.31 143.077 113.367 142.883 113.448 142.769C113.586 142.541 113.505 142.209 113.287 142.141C113.206 142.107 112.988 142.061 112.804 142.015C112.62 141.981 112.459 141.856 112.424 141.73C112.367 141.513 112.183 141.445 111.182 141.319C110.458 141.239 109.894 141.056 109.492 140.794C109.331 140.68 109.147 140.588 109.089 140.588C108.756 140.588 107.1 138.476 107.1 138.065C107.1 137.962 107.031 137.814 106.939 137.746C106.594 137.46 106.502 136.147 106.72 134.663C106.893 133.533 107.008 133.133 107.456 132.186C107.64 131.797 107.79 131.421 107.79 131.352C107.79 131.272 107.893 131.021 108.008 130.793C108.365 130.119 108.71 129.297 108.71 129.126C108.71 129.035 108.767 128.92 108.825 128.886C108.894 128.852 108.94 128.658 108.94 128.475C108.94 128.293 109.009 128.019 109.101 127.882C109.193 127.745 109.308 127.368 109.354 127.06C109.4 126.74 109.48 126.454 109.538 126.42C109.641 126.352 110.159 124.046 110.274 123.178C110.297 122.927 110.377 122.596 110.435 122.436C110.492 122.276 110.573 121.945 110.607 121.694C110.642 121.443 110.745 120.723 110.837 120.095C111.09 118.394 111.079 117.435 110.78 117.138C110.653 117.001 110.55 116.819 110.55 116.75C110.55 116.659 110.32 116.613 109.871 116.613C109.331 116.613 109.181 116.659 109.112 116.807Z" fill="black"/>
<path d="M127.271 119.136C127.075 119.194 126.845 119.319 126.765 119.41C126.684 119.502 126.558 119.582 126.477 119.582C126.27 119.582 125.27 120.723 125.27 120.975C125.27 121.089 125.224 121.18 125.155 121.18C125.097 121.18 125.04 121.271 125.04 121.386C125.04 121.5 125.005 121.637 124.959 121.682C124.787 121.854 124.58 122.63 124.58 123.132C124.58 124.833 125.684 126.123 127.282 126.283C128.513 126.409 129.479 125.77 130.146 124.377C130.468 123.703 130.502 123.532 130.502 122.493C130.502 121.249 130.364 120.815 129.64 119.833C129.099 119.091 128.271 118.84 127.271 119.136Z" fill="black"/>
<path d="M97.325 119.65C96.4855 120.095 96.1865 120.358 95.761 121.02C95.1975 121.899 94.9905 122.744 95.0825 123.794C95.209 125.119 95.7495 126.089 96.681 126.637C98.314 127.608 99.924 126.991 100.809 125.062C101.246 124.091 101.35 123.68 101.35 122.847C101.35 121.534 100.453 120.038 99.4295 119.662C98.59 119.342 97.9115 119.342 97.325 119.65Z" fill="black"/>
<path d="M119.566 153.272C118.945 153.592 118.244 153.946 118.025 154.049C117.807 154.163 117.496 154.311 117.335 154.38C117.174 154.437 116.737 154.631 116.358 154.813C115.978 154.985 115.438 155.167 115.15 155.224C114.092 155.43 114 155.453 114 155.544C114 155.647 113.425 155.75 111.93 155.887C110.516 156.024 110.412 156.046 110.228 156.161C110.136 156.218 109.998 156.183 109.883 156.081C109.78 155.989 109.331 155.875 108.883 155.83C107.986 155.727 107.894 155.727 107.365 155.841C106.939 155.921 106.64 156.378 106.64 156.937C106.64 157.302 107.054 157.942 107.296 157.942C107.376 157.942 107.537 157.987 107.652 158.044C108.227 158.341 110.458 158.615 111.93 158.57C113.034 158.535 114.529 158.364 114.656 158.261C114.736 158.193 114.92 158.17 115.07 158.216C115.219 158.25 115.438 158.204 115.564 158.124C115.679 158.044 116.024 157.942 116.312 157.896C116.611 157.85 116.944 157.748 117.059 157.656C117.186 157.565 117.381 157.485 117.519 157.485C117.784 157.485 118.669 157.085 118.761 156.926C118.807 156.868 119.037 156.789 119.279 156.743C119.532 156.697 119.762 156.606 119.785 156.526C119.819 156.435 119.98 156.343 120.153 156.298C120.555 156.195 121.13 155.772 121.13 155.578C121.13 155.498 121.257 155.43 121.418 155.43C121.763 155.43 122.073 155.145 122.349 154.574C122.522 154.208 122.522 154.106 122.384 153.683C122.108 152.804 121.981 152.69 121.314 152.69C120.82 152.69 120.509 152.793 119.566 153.272Z" fill="black"/>
</svg>
